<?xml version="1.0" standalone="no"?>
<!DOCTYPE svg PUBLIC "-//W3C//DTD SVG 1.1//EN" "http://www.w3.org/Graphics/SVG/1.1/DTD/svg11.dtd" >
<svg xmlns="http://www.w3.org/2000/svg">
<metadata>Generated by IcoMoon</metadata>
<defs>
<font id="icomoon" horiz-adv-x="1024">
<font-face units-per-em="1024" ascent="960" descent="-64" />
<missing-glyph horiz-adv-x="1024" />
<glyph unicode="&#x20;" horiz-adv-x="512" d="" />
<glyph unicode="&#xe000;" glyph-name="almsgiving" d="M455.322 621.756c32.446 0 58.84 26.394 58.84 58.84 0 32.442-26.394 58.838-58.84 58.838-32.442 0-58.836-26.396-58.836-58.838 0-32.446 26.394-58.84 58.836-58.84zM432.272 673.466c1.040 1.046 2.442 1.632 3.914 1.632h1.122c2.872 0 5.254-2.208 5.488-5.066 0.208-2.536 0.628-4.266 1.25-5.16 1.426-2.004 6.696-3.218 10.958-3.218 4.214 0 11.352 1.832 11.352 8.706 0 4.756-4.054 6.912-13.758 10.236-9.356 3.2-19.96 6.828-19.96 18.856 0 10.082 7.882 17.67 16.196 19.964v6.706c0 3.044 2.468 5.51 5.512 5.51h1.324c3.040 0 5.508-2.464 5.508-5.51v-6.268c5.704-0.418 10.184-2.18 13.64-5.35 1.132-1.044 1.782-2.518 1.782-4.064l-0.008-9.558c-0.004-3.042-2.468-5.504-5.512-5.504h-1.418c-3.040 0-5.508 2.464-5.508 5.51v0.33c0 4.234-1.422 7.050-8.376 7.050-3.622 0-10.464-1.75-10.464-8.376 0-3.714 3.704-5.612 12.566-8.71 9.422-3.3 21.148-7.406 21.148-20.602 0-10.696-8.696-18.286-17.852-20.21v-9.324c0-3.042-2.468-5.508-5.508-5.508h-1.324c-3.042 0-5.512 2.464-5.512 5.508v9.122c-3.55 0.454-7.992 1.64-12.906 3.012l-0.262 0.056c-0.32 0.070-0.64 0.142-0.878 0.208-2.364 0.664-4.004 2.808-4.020 5.262l-0.086 10.84c-0.014 1.468 0.56 2.88 1.592 3.92zM403.080 402.15c54.582 0 98.988 44.406 98.988 98.988s-44.406 98.988-98.988 98.988-98.988-44.406-98.988-98.988 44.406-98.988 98.988-98.988zM364.298 489.146c1.746 1.758 4.11 2.746 6.586 2.746h1.882c4.828 0 8.844-3.71 9.238-8.524 0.344-4.262 1.054-7.18 2.102-8.68 2.398-3.372 11.262-5.418 18.43-5.418 7.094 0 19.102 3.086 19.102 14.648 0 8-6.824 11.628-23.144 17.218-15.746 5.382-33.586 11.492-33.586 31.726 0 16.96 13.262 29.722 27.25 33.584v11.28c0 5.122 4.152 9.274 9.27 9.274h2.23c5.114 0 9.266-4.152 9.266-9.274v-10.544c9.59-0.702 17.132-3.666 22.946-8.998 1.91-1.758 3-4.238 3-6.84l-0.016-16.078c-0.004-5.118-4.152-9.262-9.27-9.262h-2.386c-5.114 0-9.266 4.148-9.266 9.27v0.556c0 7.122-2.394 11.864-14.090 11.864-6.094 0-17.61-2.948-17.61-14.088 0-6.25 6.23-9.446 21.144-14.66 15.852-5.55 35.582-12.458 35.582-34.66 0-17.992-14.628-30.762-30.036-34v-15.684c0-5.122-4.152-9.27-9.266-9.27h-2.23c-5.118 0-9.27 4.148-9.27 9.27v15.344c-5.972 0.762-13.45 2.758-21.714 5.066l-0.442 0.094c-0.54 0.118-1.074 0.238-1.476 0.356-3.976 1.118-6.738 4.718-6.766 8.848l-0.144 18.238c-0.018 2.47 0.946 4.848 2.684 6.598zM531.78 505.42c13.512-10.254 30.32-16.372 48.55-16.372 44.41 0 80.542 36.132 80.542 80.546 0 44.41-36.132 80.542-80.542 80.542-39.328 0-72.144-28.342-79.144-65.67 18.262-21.462 29.606-48.96 30.594-79.046zM548.776 559.838c1.418 1.43 3.344 2.232 5.36 2.232h1.532c3.93 0 7.196-3.018 7.516-6.934 0.282-3.468 0.86-5.842 1.71-7.064 1.95-2.742 9.164-4.406 14.996-4.406 5.77 0 15.542 2.508 15.542 11.918 0 6.508-5.554 9.462-18.832 14.012-12.812 4.38-27.328 9.35-27.328 25.812 0 13.802 10.79 24.188 22.172 27.328v9.18c0 4.168 3.378 7.542 7.542 7.542h1.812c4.16 0 7.54-3.376 7.54-7.542v-8.582c7.804-0.57 13.942-2.98 18.672-7.32 1.554-1.432 2.442-3.45 2.442-5.566l-0.012-13.082c-0.004-4.164-3.378-7.538-7.542-7.538h-1.942c-4.16 0-7.542 3.376-7.542 7.544v0.452c0 5.794-1.946 9.654-11.46 9.654-4.958 0-14.332-2.398-14.332-11.464 0-5.086 5.070-7.684 17.208-11.93 12.898-4.516 28.954-10.132 28.954-28.2 0-14.64-11.906-25.032-24.442-27.668v-12.762c0-4.164-3.378-7.54-7.54-7.54h-1.812c-4.164 0-7.542 3.376-7.542 7.54v12.488c-4.86 0.618-10.946 2.242-17.668 4.122l-0.36 0.078c-0.442 0.094-0.876 0.192-1.204 0.286-3.234 0.91-5.484 3.844-5.504 7.204l-0.118 14.838c-0.018 2.008 0.768 3.942 2.182 5.368zM910.698 347.878c-54.402 10.542-106.092 17.94-158.024 22.614-10.326 0.93-20.784 1.4-31.084 1.4-67.472 0-122.568-19.452-175.852-38.262-15.014-5.298-36.946-10.6-60.166-16.21-33.894-8.192-68.938-16.662-85.464-25.996-14.968-8.456-20.606-18.782-16.752-30.692 5.62-17.372 28.832-25.118 75.26-25.118 31.036 0 69.368 3.446 109.952 7.094 6.522 0.586 13.15 1.182 19.836 1.772-55.5-14.942-102.85-22.51-140.97-22.51-43.78-0.002-72.338 10.172-80.414 28.648-5.706 13.050-0.302 29.47 15.212 46.234l2.302 2.486-3.29 0.812c-1.706 0.422-170.966 42.214-203.418 49.332-7.156 1.57-14.424 2.366-21.602 2.366-25.788 0-46.746-10.244-49.832-24.36-1.492-6.82 0.21-20.192 28.422-33.15l247.416-104.202c8.26-3.050 16.744-6.582 25.726-10.32 27.47-11.432 55.876-23.254 82.27-23.252 10.982 0 21.492 1.142 32.13 3.496 19.154 4.236 67.524 18.564 118.734 33.734 49.85 14.766 101.4 30.036 122.022 34.678 16.184 3.642 32.866 5.412 50.998 5.412 31.258 0 61.932-5.256 93.218-11.112l10.658-1.994v125.686l-7.288 1.414z" />
<glyph unicode="&#xe001;" glyph-name="bread23" d="M479.708 498.96c243.224 0 250 24.26 250 75.614 0 57.892-64.008 107.486-154.918 128.234 0.14-4.414 0.22-8.936 0.22-13.554 0-45.938-7.408-83.174-16.54-83.174-9.136 0-16.542 37.236-16.542 83.174 0 6.736 0.162 13.276 0.464 19.546-13.884 1.988-28.23 3.33-42.936 3.966 0.35-7.55 0.548-15.42 0.546-23.514 0.002-56.378-9.090-102.078-20.298-102.078-11.212 0-20.3 45.7-20.3 102.078 0 8.094 0.194 15.962 0.548 23.514-14.706-0.636-29.056-1.978-42.938-3.966 0.302-6.272 0.464-12.81 0.464-19.546 0-45.938-7.406-83.174-16.54-83.174-9.136 0-16.542 37.236-16.542 83.174 0 4.62 0.080 9.14 0.222 13.554-90.91-20.748-154.918-70.342-154.918-128.234 0.008-51.354 6.782-75.614 250.008-75.614zM910.7 374.544c-54.402 10.542-106.094 17.94-158.024 22.614-10.328 0.93-20.786 1.4-31.086 1.4-67.472 0-122.566-19.452-175.852-38.262-15.016-5.298-36.946-10.6-60.168-16.21-33.89-8.192-68.938-16.662-85.46-25.996-14.968-8.456-20.606-18.782-16.754-30.692 5.622-17.372 28.832-25.118 75.262-25.118 31.036 0 69.368 3.446 109.95 7.094 6.524 0.586 13.152 1.182 19.836 1.772-55.496-14.942-102.848-22.51-140.968-22.51-43.782-0.002-72.34 10.172-80.414 28.648-5.704 13.050-0.3 29.47 15.214 46.234l2.3 2.486-3.29 0.812c-1.708 0.422-170.968 42.214-203.418 49.332-7.156 1.57-14.426 2.366-21.606 2.366-25.786 0-46.742-10.244-49.832-24.36-1.488-6.82 0.21-20.192 28.426-33.15l247.414-104.202c8.262-3.050 16.742-6.582 25.726-10.32 27.468-11.432 55.876-23.254 82.27-23.252 10.98 0 21.492 1.142 32.128 3.496 19.152 4.236 67.524 18.564 118.734 33.734 49.852 14.766 101.398 30.036 122.024 34.678 16.184 3.642 32.864 5.412 50.996 5.412 31.258 0 61.934-5.256 93.218-11.112l10.656-1.994v125.686l-7.282 1.414z" />
<glyph unicode="&#xe002;" glyph-name="child13" d="M774.26 629.252c0 22.608-18.392 41-41 41s-41.796-18.392-41.796-41l-0.002-198.704c-0.002-8.028-6.024-14.082-14.006-14.080-7.976 0-13.992 6.032-13.992 14.030v364.702c0 0 0.962 43.162-41 43.162s-41-43.2-41-43.2v-338.564c0.046-1.386-0.090-6.026-3.586-9.742-1.782-1.892-5.056-4.148-10.56-4.148-5.544 0-8.836 2.254-10.622 4.144-3.458 3.664-3.608 8.206-3.568 9.548v390.558c0 22.608-18.39 41-41 41-22.606 0-41-18.392-41-41v-391.286c0.078-1.526-0.004-6.188-3.45-9.952-1.784-1.946-5.088-4.266-10.714-4.266-5.502 0-8.772 2.272-10.544 4.176-3.498 3.758-3.614 8.458-3.554 9.912l-0.068 341.414c0 22.608-18.394 41-41.002 41s-40.998-18.392-40.998-41v-442.068c0.056-1.588-0.026-7.55-4.118-11.868-1.736-1.832-4.858-4.018-9.862-4.018-5.030 0-8.134 2.208-9.856 4.058-3.994 4.296-4.014 10.194-3.93 11.884v139.174c0 22.976-18.694 41.668-41.672 41.668-22.976 0-41.668-18.692-41.668-41.668v-209.494c0-115.938 29.346-157.004 86.526-208.94 49.422-44.888 106.94-67.648 170.948-67.646l1.23 0.002c102.938 0.466 182.778 45.45 237.306 133.698 18.938 30.65 28.562 67.148 28.608 108.48l-0.050 379.034zM622.48 196.9c-1.996-1.632-3.574-2.926-4.328-3.594-17.542-15.618-41.040-35.32-62.312-37.71-7.718-0.872-65.828-8.972-81.57 42.418-1.368 4.464-2.394 8.894-3.52 13.148-5.68 21.492-10.586 40.050-21.106 60.438-0.34 0.652-0.75 1.422-1.21 2.274-4.546 8.468-13.020 24.222-5.292 32.286 2.042 2.128 4.528 3.254 7.192 3.254 7.226 0 13.542-8.184 15.308-10.692 0.376-0.532 0.958-1.492 1.848-2.942 2.254-3.688 6.028-9.852 10.078-15.128 6.378-8.316 9.114-8.738 9.594-8.738 0.52 0.004 1.32 1.312 1.852 3.816 2.828 13.282-0.676 27.95-4.066 42.14-1.59 6.648-3.234 13.528-4.148 20.042-0.746 5.364 0.512 13.422 4.316 17.792 1.8 2.066 4.032 3.156 6.458 3.156 2.786 0 5.652-1.438 8.528-4.282 5.954-5.89 9.816-20.996 11.59-29.472 0.258-1.242 2.848-11.156 6.372-21.442 4.91-14.332 7.934-18.468 9.094-19.628 0.028 0.058 0.058 0.122 0.090 0.188 5.422 11.234 4.218 27.398 3.16 41.66-0.48 6.46-0.93 12.558-0.828 18.126 0.136 7.57 0.558 30.614 15.546 30.614 0.996 0 2.040-0.118 3.106-0.336 10.062-2.082 10.218-20.458 9.46-40.742-0.102-2.796-0.192-5.214-0.18-6.954 0.012-2.758-0.192-6.128-0.41-9.692-0.684-11.304-1.628-26.79 4.172-33.468 0.042-0.050 0.078-0.094 0.114-0.126 0.688 0.394 3.528 2.68 8.148 14.796 2.886 7.554 4.958 15.016 4.976 15.086 0.128 0.464 3.176 11.382 7.86 22.504 6.786 16.098 13.324 23.926 19.996 23.926 1.016 0 2.028-0.188 3.008-0.558 3.282-1.23 5.7-3.536 7.184-6.84 5.422-12.028-3.308-34.958-8-47.278-0.68-1.782-1.266-3.316-1.656-4.434-0.626-1.79-1.434-3.938-2.376-6.418-5.93-15.708-18.274-48.394-4.77-56.45 2.86-1.708 5.758-2.536 8.848-2.536 7.938 0 16.218 5.626 24.23 11.066 8.32 5.656 16.918 11.496 25.79 11.496 1.45 0 2.886-0.156 4.274-0.468 6.040-1.352 8.016-4.622 8.606-7.126 2.85-12.040-21.158-33.634-45.026-53.172z" />
<glyph unicode="&#xe003;" glyph-name="donation1" d="M480.976 472.17c-13.002 4.546-18.438 7.332-18.438 12.782 0 9.714 10.042 12.286 15.358 12.286 10.194 0 12.286-4.136 12.286-10.344v-0.484c0-4.464 3.62-8.086 8.078-8.086h2.082c4.46 0 8.078 3.614 8.082 8.078l0.012 14.020c0 2.266-0.95 4.43-2.616 5.96-5.070 4.652-11.642 7.234-20.006 7.848v9.196c0 4.464-3.622 8.082-8.078 8.082h-1.948c-4.458 0-8.080-3.618-8.080-8.082v-9.836c-12.198-3.368-23.758-14.496-23.758-29.286 0-17.64 15.554-22.964 29.28-27.66 14.23-4.876 20.182-8.040 20.182-15.016 0-10.082-10.468-12.77-16.652-12.77-6.25 0-13.982 1.782-16.072 4.722-0.914 1.308-1.53 3.852-1.83 7.57-0.344 4.196-3.846 7.43-8.054 7.43h-1.642c-2.158 0-4.22-0.86-5.742-2.394-1.516-1.528-2.36-3.598-2.34-5.754l0.126-15.898c0.026-3.602 2.432-6.742 5.9-7.718 0.35-0.098 0.816-0.204 1.288-0.308l0.384-0.082c7.206-2.012 13.724-3.754 18.934-4.414v-13.382c0-4.46 3.622-8.078 8.080-8.078h1.948c4.458 0 8.078 3.618 8.078 8.078v13.676c13.434 2.824 26.188 13.958 26.188 29.648-0.006 19.356-17.208 25.376-31.030 30.216zM898.422 733.208v149.836c-42.396-18.584-122.152-45.17-159.27-47.282s-211.55 25.278-258.806 13.45c-38.032-9.52-246.858-166.668-309.148-210.004-99.446-69.186-11.44-80.276 30.316-64.272 42.016 16.104 177.424 91.742 177.424 91.742-0.428-15.324 1.888-37.016 15.594-60.438 0 0 15.5-21.728 34.074-42.998-40.080-18.274-68.012-58.702-68.012-105.546 0-39.792 20.156-74.96 50.792-95.852h-200.408c-11.098 0-20.096-8.996-20.096-20.094v-308.7c0-11.102 8.998-20.098 20.096-20.098h531.124c11.096 0 20.094 8.996 20.094 20.098v308.7c0 11.098-8.998 20.094-20.094 20.094h-200.408c30.634 20.89 50.79 56.058 50.79 95.852 0 29.082-10.788 55.676-28.54 76.050-0.212 0.178-0.4 0.372-0.578 0.568 28.966 14.436 59.41 40.302 133.118 70.45 124.148 50.778 166.196 108.446 201.938 128.444zM556.398 615.652c-23.266-16.424-39.144-32.466-48.406-46.38-5.222 1.474-10.59 2.59-16.078 3.328-4.798 15.53-13.040 35.958-25.598 63.008 0 0-5.764 13.558-3.864 29.77 4.74 18.116 21.1 37.544 67.328 43.51 77.84 10.044 88.888-29.308 53.712-70.28-7.508-7.778-16.574-15.53-27.094-22.956zM567.354 313.956c11.042 0 20.026-8.98 20.026-20.024 0-11.040-8.982-20.024-20.026-20.024h-181.63c-11.042 0-20.024 8.984-20.024 20.024 0 11.042 8.982 20.024 20.024 20.024h181.63zM476.54 372.292c-47.094 0-85.41 38.312-85.41 85.406s38.316 85.406 85.41 85.406c6.948 0 13.694-0.852 20.162-2.426-0.010-13.536 10.524-21.258 27.898-19.542 2.668 0.262 5.256 0.632 7.784 1.102 18.084-15.676 29.56-38.786 29.56-64.54 0-47.094-38.31-85.406-85.404-85.406z" />
<glyph unicode="&#xe004;" glyph-name="donation2" d="M595.772 430.396c-27.834 3.394-60.924-2.246-98.354-16.762-26.454-10.258-47.676-22.122-57.18-27.762-13.216 20.886-56.1 110.794-71.806 147.342-7.886 18.352-34.064 55.126-60.5 44.876-6.118-2.372-10.778-6.976-13.478-13.32-8.898-20.89 5.434-55.696 6.050-57.168 20.688-49.55 77.82-183.716 84.138-198.596 0.962-2.266 2.26-5.090 3.764-8.364 3.582-7.792 8.486-18.468 11.712-28.020 4.272-12.652 3.362-16.84 3.098-17.628-0.858-0.632-1.75-1.126-2.718-1.5-17.836-6.918-53.524 26.652-67.066 43.028-12.38 14.968-38.512 22.84-54.832 16.512-6.538-2.536-11.174-7.278-13.058-13.348-2.71-8.742 0.26-19.536 8.816-32.054 0.094-0.14 0.262-0.41 0.504-0.79 12.364-19.426 46.866-68.946 100.1-109.172 34.12-25.786 69.774-42.988 105.978-51.136 44.916-10.106 90.802-6.27 136.382 11.406 48.896 18.964 76.75 55.766 82.79 109.378 5.95 52.824-11.792 108.742-22.896 137.376-15.064 38.848-42.466 60.952-81.444 65.702zM365.79 704.008c-19.458 0-24.648-23.86-24.648-37.958s5.192-37.958 24.648-37.958c19.454 0 24.644 23.86 24.644 37.958s-5.192 37.958-24.644 37.958zM552.038 660.464h20.986l-10.652 29.004zM263.010 702.188c-0.764 0-1.512-0.040-2.24-0.126l-8.2-0.91v-71.086h12.324c11.002 0 25.632 3.458 25.632 33.356 0.002 26.632-14.262 38.766-27.516 38.766zM844.166 794.964h-664.332c-70.55 0-127.742-57.192-127.742-127.742 0-70.548 57.192-127.738 127.742-127.738h91.99c-1.014 11.058-0.326 22.816 4.064 33.122 4.792 11.254 13.544 19.824 24.646 24.13 5.35 2.074 10.938 3.126 16.614 3.126 36.296 0 62.47-42.408 69.494-58.752 0.226-0.524 0.468-1.082 0.704-1.626h456.822c70.55 0 127.742 57.19 127.742 127.738 0 70.552-57.194 127.742-127.744 127.742zM265.222 612.648c-3.056 0-6.078 0.238-9.002 0.466-4.108 0.322-9.342 0.584-12.554 0.212l-14.304-1.664c-0.268-0.032-0.536-0.046-0.8-0.046-3.318 0-6.212 2.406-6.752 5.762l-0.6 3.734c-0.3 1.866 0.184 3.774 1.338 5.268 1.154 1.498 2.876 2.452 4.758 2.634l6.862 0.668v71.828l-7.476 1.61c-3.264 0.704-5.544 3.652-5.4 6.984l0.102 2.384c0.082 1.956 0.998 3.78 2.512 5.014 1.516 1.236 3.482 1.774 5.416 1.458l2.268-0.378c3.196-0.54 6.498-1.098 9.646-1.098 2.764 0 5.492 0.406 8.65 0.876 3.434 0.516 7.314 1.094 11.56 1.094 29.598 0 47.982-20.712 47.982-54.058-0.002-45.896-27.698-52.748-44.206-52.748zM365.79 610.676c-30.082 0-43.544 27.812-43.544 55.376s13.462 55.376 43.544 55.376c30.080 0 43.542-27.812 43.542-55.376s-13.462-55.376-43.542-55.376zM506.498 702.036h-3.504v-82.542c0-3.784-3.064-6.846-6.846-6.846h-6.202c-2.444 0-4.702 1.3-5.926 3.418l-38.208 66.062v-52.062h8.27c3.784 0 6.848-3.066 6.848-6.848v-3.724c0-3.784-3.064-6.846-6.848-6.846h-31.986c-3.784 0-6.848 3.062-6.848 6.846v3.724c0 3.782 3.064 6.848 6.848 6.848h5.314v71.968h-5.314c-3.784 0-6.848 3.066-6.848 6.848v3.724c0 3.784 3.064 6.846 6.848 6.846h19.168c2.458 0 4.728-1.316 5.946-3.452l37.382-65.448v51.48h-8.6c-3.782 0-6.848 3.066-6.848 6.848v3.724c0 3.784 3.066 6.846 6.848 6.846h30.506c3.782 0 6.848-3.062 6.848-6.846v-3.724c0-3.778-3.066-6.844-6.848-6.844zM613.252 619.494c0-3.784-3.064-6.846-6.848-6.846h-27.712c-3.782 0-6.848 3.062-6.848 6.846v3.724c0 3.782 3.066 6.848 6.848 6.848h5.48l-4.83 12.98h-33.376l-4.732-12.98h5.69c3.782 0 6.846-3.066 6.846-6.848v-3.724c0-3.784-3.064-6.846-6.846-6.846h-27.384c-3.782 0-6.848 3.062-6.848 6.846v3.724c0 3.782 3.066 6.848 6.848 6.848h2.636l33.78 89.282c1.004 2.65 3.532 4.406 6.364 4.424 0.014 0 0.028 0 0.040 0 2.816 0 5.35-1.724 6.376-4.35l34.998-89.356h2.672c3.784 0 6.848-3.066 6.848-6.848v-3.724zM706.588 683.414c0-3.784-3.064-6.848-6.848-6.848h-4.708c-3.782 0-6.848 3.064-6.848 6.848v9.75c0 6.004-0.516 7.606-0.82 8.024-0.078 0.050-1.288 0.848-7.394 0.848h-9.202v-71.968h14.678c3.782 0 6.848-3.066 6.848-6.848v-3.724c0-3.784-3.066-6.846-6.848-6.846h-47.762c-3.782 0-6.848 3.062-6.848 6.846v3.724c0 3.782 3.066 6.848 6.848 6.848h14.678v71.968h-9.202c-6.108 0-7.316-0.796-7.434-0.886-0.266-0.378-0.782-1.98-0.782-7.984v-9.75c0-3.784-3.066-6.848-6.848-6.848h-4.708c-3.782 0-6.848 3.064-6.848 6.848v29.194c0 3.784 3.066 6.846 6.848 6.846h76.352c3.784 0 6.848-3.062 6.848-6.846v-29.196zM802.878 619.494c0-3.784-3.064-6.846-6.848-6.846h-75.694c-3.784 0-6.848 3.062-6.848 6.846v3.724c0 3.782 3.064 6.848 6.848 6.848h9.582v71.968h-9.582c-3.784 0-6.848 3.066-6.848 6.848v3.724c0 3.784 3.064 6.846 6.848 6.846h72.572c3.782 0 6.848-3.062 6.848-6.846v-23.114c0-3.782-3.066-6.846-6.848-6.846h-4.712c-3.782 0-6.846 3.064-6.846 6.846v1.534c0 5.874-0.318 9.25-0.954 10.042-0.178 0.146-1.51 0.964-8.41 0.964h-23.662v-22.838h14.41c0.592 3.178 3.38 5.584 6.732 5.584h4.708c3.784 0 6.848-3.064 6.848-6.848v-16.54c0-3.782-3.064-6.846-6.848-6.846h-4.708c-3.782 0-6.848 3.064-6.848 6.846v0.382h-14.294v-31.71h26.618c9.532 0 9.532 0 9.532 15.61v0.382c0 3.784 3.066 6.848 6.848 6.848h4.708c3.784 0 6.848-3.064 6.848-6.848v-26.56z" />
<glyph unicode="&#xe005;" glyph-name="donation3" d="M822 632.208c0 7.554-1.344 14.792-3.8 21.492l-52.676 163.652c-8.296 25.77-32.278 43.242-59.356 43.242h-388.368c-27.078 0-51.058-17.472-59.356-43.242l-53.446-166.040c-2.2-6.836-3.16-13.902-2.954-20.898-0.020-0.59-0.046-1.176-0.046-1.77v-530.884c0-34.442 27.918-62.356 62.352-62.356h495.262c34.438 0 62.352 27.914 62.352 62.356v530.886c0 0.364-0.020 0.714-0.028 1.074 0.036 0.828 0.064 1.656 0.064 2.488zM363.23 771.522h297.504l13.304-41.328h-324.108l13.3 41.328zM690.136 169.374h-356.304v356.3h356.304v-356.3zM445.856 257.842c0.786-0.23 1.836-0.468 2.89-0.696l0.868-0.184c16.188-4.52 30.84-8.434 42.542-9.926v-30.066c0-10.032 8.14-18.156 18.16-18.156h4.376c10.012 0 18.152 8.126 18.152 18.156v30.73c30.184 6.344 58.844 31.364 58.844 66.614 0 43.504-38.656 57.028-69.714 67.906-29.214 10.226-41.434 16.472-41.434 28.718 0 21.836 22.57 27.602 34.508 27.602 22.91 0 27.606-9.282 27.606-23.238v-1.090c0-10.032 8.136-18.16 18.156-18.16h4.676c10.024 0 18.156 8.122 18.16 18.14l0.028 31.508c0 5.098-2.132 9.954-5.876 13.402-11.394 10.446-26.16 16.254-44.954 17.626v20.664c0 10.032-8.14 18.168-18.152 18.168h-4.376c-10.020 0-18.16-8.136-18.16-18.168v-22.102c-27.406-7.562-53.382-32.566-53.382-65.8 0-39.648 34.95-51.614 65.792-62.16 31.976-10.946 45.352-18.066 45.352-33.734 0-22.652-23.528-28.704-37.422-28.704-14.042 0-31.418 4.016-36.114 10.614-2.058 2.95-3.442 8.664-4.118 17.012-0.77 9.43-8.64 16.692-18.098 16.692h-3.692c-4.852 0-9.484-1.926-12.902-5.368-3.406-3.438-5.3-8.098-5.258-12.934l0.282-35.734c0.056-8.082 5.466-15.144 13.26-17.332z" />
<glyph unicode="&#xe006;" glyph-name="dove2" d="M737.826 617.148c2.978 3.998 3.214 9.396 0.612 13.64-2.606 4.25-7.532 6.48-12.442 5.65-0.182-0.034-17.64-2.966-32.752-3.394 23.942 39.338 35.928 90.806 36.572 156.534 0.062 6.686-5.262 12.174-11.946 12.31-1.47 0.032-3.022 0.044-4.626 0.044-38.882 0-139.672-10.24-183.668-54.44-25.35 40.588-59.23 63.060-98.816 65.282-1.54 0.088-3.094 0.13-4.638 0.13-50.408 0-91.5-44.812-118.684-74.466-7.5-8.176-14.588-15.904-18.632-18.834-3.112-2.26-4.988-5.844-5.046-9.69-0.050-3.842 1.702-7.486 4.746-9.836 14.296-11.030 24.244-34.296 34.764-58.92 10.206-23.876 20.77-48.562 37.386-69.002 43.664-53.706 105.348-64.978 149.396-64.978 45.776 0 94.994 12.8 131.65 34.25 69.75 40.812 95.084 74.312 96.124 75.72zM370.766 700.82c-8.982 0-16.264 7.28-16.264 16.258 0 8.982 7.282 16.256 16.264 16.256 8.972 0 16.252-7.274 16.252-16.256 0-8.978-7.28-16.258-16.252-16.258zM446.976 210.594c-3.178 7.776-6.734 15.472-10.568 22.884-25.126 48.542-59.634 80.936-93.008 112.274-9.404 8.824-21.382 22.63-34.068 37.248-18.518 21.328-37.664 43.392-50.53 51.806-11.656 7.616-21.186 7.828-28.32 0.622-10.402-10.512-7.334-30.096 9.956-63.5 11.556-22.324 28.31-48.618 46.050-76.458 2.85-4.474 5.744-9.026 8.658-13.612-31.418 34.362-54.494 65.612-68.69 93.038-16.304 31.494-19.622 55.834-9.334 68.52 7.264 8.966 21.090 11.19 38.932 6.27l2.642-0.726-0.638 2.67c-0.33 1.384-33.3 138.724-40.262 164.714-1.532 5.734-3.668 11.26-6.34 16.426-9.6 18.552-24.776 29.816-36.086 26.778-5.458-1.468-14.446-7.668-13.264-32.796l17.168-216.804c0.88-7.076 1.498-14.494 2.152-22.35 2.006-24.018 4.080-48.858 13.91-67.846 4.084-7.904 8.824-15.038 14.478-21.812 10.184-12.206 38.502-41.67 68.486-72.864 29.186-30.366 59.368-61.764 70.388-74.876 8.648-10.29 16.13-21.628 22.882-34.672 5.438-10.506 10-21.344 14.076-32.43h105.494l-1.588 5.384c-12.676 43.066-26.6 83.012-42.576 122.112zM848.632 659.546c-11.312 3.038-26.486-8.226-36.086-26.778-2.672-5.166-4.808-10.692-6.34-16.426-6.962-25.99-39.93-163.332-40.262-164.714l-0.638-2.67 2.642 0.726c17.842 4.918 31.668 2.696 38.934-6.27 10.288-12.686 6.972-37.026-9.334-68.52-14.196-27.424-37.27-58.676-68.688-93.038 2.914 4.586 5.806 9.136 8.658 13.612 17.74 27.84 34.494 54.136 46.050 76.458 17.29 33.406 20.358 52.988 9.956 63.5-7.134 7.206-16.666 6.994-28.322-0.622-12.866-8.414-32.012-30.478-50.53-51.806-12.684-14.618-24.662-28.424-34.068-37.248-33.374-31.336-67.882-63.73-93.006-112.274-3.834-7.412-7.39-15.108-10.568-22.884-15.976-39.1-29.902-79.044-42.578-122.114l-1.584-5.384h105.492c4.076 11.086 8.638 21.924 14.076 32.43 6.75 13.044 14.234 24.382 22.882 34.672 11.020 13.112 41.202 44.51 70.388 74.876 29.982 31.194 58.302 60.66 68.486 72.864 5.656 6.774 10.394 13.91 14.478 21.812 9.83 18.99 11.902 43.828 13.91 67.846 0.654 7.856 1.27 15.274 2.152 22.35l17.168 216.804c1.178 25.13-7.812 31.332-13.268 32.798z" />
<glyph unicode="&#xe007;" glyph-name="dove3" d="M220.072 538.462c15.254 3.234 45.846-15.136 50.22-18.732 9.62-8.362 17.762-17.148 25.632-25.646 23.058-24.892 44.832-48.408 93.882-46.686 38.2 1.332 62.236-16.288 90.068-36.684 13.424-9.846 27.312-20.020 43.998-29.098 0.090-0.048 0.188-0.102 0.29-0.146 3.836-1.832 10.368-3.126 19.67 1.126 0 0 0 0 0.002 0 23.264 10.63 55.064 53.504 47.426 82.312-3.198 12.074-14.326 25.816-49.17 22.694-52.476-4.644-86.27 0.548-100.42 15.434-6.324 6.65-8.646 15.254-7.106 26.31 1.46 10.462 8.040 21.49 15.010 33.166 10.528 17.626 22.45 37.606 21.882 62.918-0.306 13.846 4.424 86.782 5.192 92.896 0.314 1.308 0.2 2.732-0.416 4.038-1.426 3.040-5.042 4.358-8.086 2.966-0.032-0.008-0.064-0.022-0.070-0.032-20.85-9.83-60.256-45.964-83.796-67.546-1.214-1.114-2.38-2.182-3.488-3.194-26.11 42.798-62.69 59.358-64.31 60.070-1.928 0.858-4.162 0.66-5.916-0.532-1.754-1.188-2.766-3.194-2.68-5.306 0.022-0.64 2.44-64.192-0.062-93.868-0.978-11.682-4.134-17.102-12.046-20.718-8.11-3.704-21.532-5.598-39.188-7.306-5.568-0.54-10.058-1.616-13.728-3.29-9.742-4.452-11.968-12.228-13.932-19.092-1.576-5.504-9.354-10.706-14.596-15.668-2.452-2.326-2.562-6.196-0.248-8.654 1.586-1.682 3.89-2.268 5.986-1.732zM910.698 361.428c-54.402 10.542-106.092 17.938-158.024 22.612-10.326 0.93-20.784 1.4-31.084 1.4-67.472 0-122.568-19.45-175.852-38.26-15.014-5.3-36.946-10.6-60.166-16.212-33.892-8.192-68.938-16.662-85.464-25.996-14.968-8.456-20.606-18.78-16.752-30.69 5.62-17.372 28.832-25.118 75.262-25.118 31.034 0 69.368 3.446 109.95 7.094 6.522 0.586 13.152 1.182 19.836 1.772-55.5-14.942-102.85-22.51-140.97-22.51-43.78 0-72.338 10.172-80.414 28.648-5.704 13.050-0.302 29.47 15.212 46.234l2.302 2.488-3.29 0.812c-1.706 0.422-170.966 42.214-203.418 49.332-7.156 1.57-14.424 2.366-21.602 2.366-25.788 0-46.746-10.246-49.832-24.36-1.492-6.82 0.21-20.192 28.422-33.15l247.416-104.2c8.26-3.052 16.744-6.584 25.726-10.32 27.47-11.432 55.876-23.254 82.27-23.252 10.982 0 21.492 1.144 32.13 3.496 19.154 4.238 67.524 18.566 118.734 33.734 49.85 14.766 101.4 30.036 122.024 34.678 16.184 3.642 32.866 5.414 50.998 5.414 31.258 0 61.932-5.256 93.22-11.112l10.656-1.994v125.686l-7.29 1.408z" />
<glyph unicode="&#xe008;" glyph-name="energy24" d="M688.012 556.75l38.976-27.286c3.128-2.188 6.8-3.344 10.62-3.344 6.050 0 11.728 2.956 15.192 7.906 5.86 8.372 3.818 19.952-4.552 25.812l-38.988 27.29c-3.128 2.186-6.798 3.344-10.608 3.344-6.050 0-11.732-2.958-15.2-7.912-5.858-8.372-3.814-19.95 4.56-25.81zM286.394 526.12c3.82 0 7.492 1.156 10.62 3.346l38.976 27.284c8.372 5.86 10.416 17.44 4.56 25.812-3.468 4.952-9.15 7.91-15.198 7.91-3.812 0-7.48-1.158-10.612-3.348l-38.986-27.286c-8.37-5.862-10.412-17.442-4.55-25.814 3.464-4.95 9.142-7.904 15.19-7.904zM698.65 711.776c3.812 0 7.482 1.162 10.612 3.354l38.988 27.288c8.366 5.858 10.406 17.438 4.548 25.812-3.466 4.95-9.144 7.904-15.188 7.904-3.816 0-7.488-1.162-10.622-3.354l-38.976-27.284c-8.37-5.862-10.416-17.442-4.558-25.82 3.466-4.946 9.148-7.9 15.196-7.9zM275.754 742.416l38.98-27.282c3.134-2.196 6.804-3.358 10.616-3.358 6.052 0 11.734 2.954 15.202 7.908 5.854 8.372 3.808 19.952-4.562 25.812l-38.978 27.284c-3.132 2.192-6.806 3.354-10.62 3.354-6.048 0-11.726-2.958-15.19-7.904-5.86-8.376-3.818-19.956 4.552-25.814zM512 826.482c10.218 0 18.534 8.316 18.534 18.54v41.834c0 10.218-8.314 18.534-18.534 18.534s-18.534-8.314-18.534-18.534v-41.836c0-10.222 8.316-18.538 18.534-18.538zM515.496 401.282l32.6 210.378-34.21-6.608c-1.336-0.25-2.708-0.246-4.036 0.014l-33.946 6.474 32.814-210.26h6.778zM450.902 371.26c0-1.044 0.118-2.062 0.332-3.046-3.724-2.79-6.144-7.22-6.144-12.226 0-5.72 8.002-8.212 7.81-13.316-0.2-5.104-16.542-7.942-16.542-17.228 0-9.54 17.528-11.378 17.528-17.272 0-5.878-8.796-7.7-8.796-13.812 0-8.438 6.832-15.276 15.276-15.276h103.27c8.444 0 15.276 6.838 15.276 15.276 0 17.592-81.544 13.812-81.544 13.812s90.276 0.214 90.276 17.272c0 17.048-95.062 17.228-95.062 17.228s86.332-0.166 86.332 13.316c0 5.006-2.42 9.438-6.144 12.226 0.216 0.984 0.332 2.002 0.332 3.046 0 49.558 23.54 87.498 48.452 127.67 26.242 42.302 53.374 86.044 53.374 145.044 0 89.83-73.090 162.92-162.922 162.92-89.83 0-162.922-73.090-162.922-162.92 0-59.064 27.176-102.948 53.46-145.376 24.864-40.162 48.358-78.1 48.358-127.338zM455.578 632.684c2.514 2.42 6.052 3.464 9.474 2.792l47.014-9.014 46.958 9.030c3.41 0.642 6.924-0.414 9.422-2.83 2.494-2.416 3.662-5.892 3.13-9.324l-36.32-234.394c-0.806-5.214-5.296-9.060-10.572-9.060h-25.108c-5.272 0-9.76 3.84-10.572 9.048l-36.58 234.394c-0.54 3.446 0.638 6.94 3.154 9.358zM446.976 118.108c-3.178 7.778-6.734 15.472-10.572 22.884-25.126 48.544-59.63 80.94-93.008 112.272-9.404 8.826-21.384 22.632-34.068 37.25-18.516 21.332-37.664 43.39-50.53 51.804-11.658 7.62-21.184 7.83-28.32 0.624-10.404-10.512-7.334-30.098 9.956-63.5 11.554-22.326 28.308-48.622 46.048-76.462 2.85-4.472 5.744-9.022 8.658-13.61-31.418 34.364-54.492 65.614-68.688 93.040-16.304 31.494-19.622 55.834-9.334 68.522 7.264 8.962 21.090 11.19 38.93 6.27l2.644-0.726-0.638 2.67c-0.33 1.382-33.296 138.722-40.26 164.716-1.532 5.732-3.668 11.26-6.342 16.424-9.602 18.552-24.776 29.814-36.084 26.782-5.458-1.468-14.446-7.67-13.262-32.796l17.166-216.804c0.88-7.080 1.498-14.492 2.154-22.352 2.002-24.020 4.076-48.858 13.906-67.846 4.088-7.902 8.826-15.040 14.48-21.814 10.182-12.202 38.5-41.67 68.484-72.862 29.186-30.368 59.368-61.766 70.39-74.878 8.646-10.29 16.128-21.626 22.88-34.672 5.438-10.504 10-21.344 14.076-32.43h105.49l-1.584 5.384c-12.668 43.066-26.598 83.008-42.572 122.11zM848.63 567.066c-11.308 3.034-26.482-8.228-36.084-26.782-2.674-5.164-4.81-10.692-6.34-16.424-6.964-25.994-39.93-163.334-40.26-164.716l-0.638-2.67 2.644 0.726c17.84 4.92 31.666 2.694 38.93-6.27 10.288-12.688 6.97-37.028-9.334-68.522-14.198-27.426-37.27-58.676-68.688-93.040 2.916 4.588 5.808 9.136 8.658 13.61 17.74 27.842 34.494 54.136 46.048 76.462 17.29 33.402 20.36 52.988 9.956 63.5-7.136 7.208-16.664 6.996-28.32-0.624-12.866-8.414-32.014-30.472-50.53-51.804-12.684-14.618-24.664-28.424-34.068-37.25-33.378-31.332-67.882-63.726-93.008-112.272-3.838-7.412-7.394-15.108-10.572-22.884-15.974-39.102-29.904-79.044-42.576-122.114l-1.584-5.384h105.49c4.076 11.086 8.638 21.926 14.076 32.43 6.752 13.044 14.234 24.382 22.88 34.672 11.022 13.114 41.206 44.512 70.39 74.878 29.984 31.192 58.302 60.66 68.484 72.862 5.654 6.776 10.392 13.912 14.48 21.814 9.83 18.988 11.904 43.826 13.906 67.846 0.658 7.86 1.274 15.272 2.154 22.352l17.166 216.804c1.188 25.13-7.802 31.33-13.26 32.8z" />
<glyph unicode="&#xe009;" glyph-name="fruit9" d="M479.688 384.268c84.754-36.674 140.020 82.014 140.020 159.37 0 74.684-57.428 118.47-132.066 85.558 6.232 10.41 16.092 25.306 28.552 39.596h0.014c10.552 12.13 31.212 27.702 31.212 27.702 3.104 2.348 2.77 5.616-0.758 7.262l-24.976 11.668c-3.528 1.654-8.33 0.448-10.67-2.664 0 0-18.47-26.498-40.208-82.896-67.208 30.402-131.1-12.182-131.1-86.228 0-77.354 59.502-194.838 139.98-159.368zM472.59 654.244c3.884 0.326 7.314 3.766 7.63 7.646 0 0 2.492 30.244-18.584 51.344-21.146 21.106-51.334 18.592-51.334 18.592-3.886-0.326-7.312-3.764-7.634-7.644 0 0-2.542-30.26 18.566-51.368 21.098-21.086 51.356-18.57 51.356-18.57zM910.698 355.396c-54.402 10.542-106.092 17.938-158.024 22.612-10.326 0.93-20.784 1.4-31.084 1.4-67.472 0-122.568-19.45-175.852-38.26-15.014-5.3-36.946-10.6-60.166-16.212-33.892-8.192-68.938-16.662-85.464-25.996-14.968-8.456-20.606-18.78-16.752-30.69 5.62-17.372 28.832-25.118 75.262-25.118 31.034 0 69.368 3.446 109.95 7.094 6.522 0.586 13.152 1.182 19.836 1.772-55.5-14.942-102.85-22.51-140.97-22.51-43.78 0-72.338 10.172-80.414 28.648-5.704 13.050-0.302 29.47 15.212 46.234l2.302 2.488-3.29 0.812c-1.706 0.422-170.966 42.214-203.418 49.332-7.156 1.57-14.424 2.366-21.602 2.366-25.788 0-46.746-10.246-49.832-24.36-1.492-6.82 0.21-20.192 28.422-33.15l247.416-104.2c8.26-3.052 16.744-6.584 25.726-10.32 27.47-11.432 55.876-23.254 82.27-23.252 10.982 0 21.492 1.144 32.13 3.496 19.154 4.238 67.524 18.566 118.734 33.734 49.85 14.766 101.4 30.036 122.024 34.678 16.184 3.642 32.866 5.414 50.998 5.414 31.258 0 61.932-5.256 93.22-11.112l10.656-1.994v125.686l-7.29 1.408z" />
<glyph unicode="&#xe00a;" glyph-name="gift79" d="M370.010 553.458v-150.102c0-11.442 9.282-20.706 20.712-20.706h215.3c11.428 0 20.708 9.264 20.708 20.706v150.102c12.468 3.408 21.64 14.81 21.64 28.372v38.718c0 16.252-13.17 29.426-29.426 29.426h-33.81c14.122 12.17 17.642 24.988 18.046 33.796 0.526 11.544-3.868 23.542-12.67 34.688-10.884 13.772-24.216 21.056-38.514 21.056-10.76 0-21.472-4.152-31.818-12.336-8.318-6.566-15.936-15.444-21.808-25.14-5.874 9.698-13.49 18.574-21.808 25.14-10.346 8.184-21.058 12.336-31.82 12.336-14.298 0-27.628-7.286-38.512-21.056-8.802-11.146-13.196-23.142-12.67-34.688 0.4-8.808 3.926-21.626 18.046-33.796h-33.81c-16.256 0-29.426-13.174-29.426-29.426v-38.718c0.004-13.56 9.174-24.962 21.64-28.372zM513.21 679.348c4.308 11.044 12.552 22.312 21.534 29.412 6.094 4.822 11.906 7.268 17.254 7.268 8.672 0 15.704-6.596 20.092-12.132 3.668-4.638 7.958-11.708 7.624-19.068-0.292-6.39-4.16-12.582-11.512-18.398-11.106-8.774-27.428-14.662-40.638-14.662-4.186 0-11.722 0.644-15.142 4.964-1.406 1.776-2.166 4.298-2.288 7.348 0.002 0.658 0.002 1.324-0.008 1.998 0.156 3.848 1.182 8.378 3.084 13.27zM514.108 611.212v-201.234h-31.472v201.234h31.472zM424.654 703.894c4.386 5.538 11.42 12.132 20.090 12.132 5.35 0 11.162-2.446 17.254-7.268 8.978-7.1 17.226-18.368 21.536-29.412 1.902-4.892 2.93-9.422 3.080-13.272-0.006-0.674-0.006-1.34-0.006-1.998-0.12-3.048-0.878-5.572-2.286-7.348-3.424-4.32-10.958-4.964-15.142-4.964-13.214 0-29.534 5.888-40.638 14.662-7.352 5.816-11.22 12.008-11.512 18.398-0.332 7.362 3.956 14.432 7.624 19.070zM910.698 347.798c-54.402 10.542-106.092 17.938-158.024 22.612-10.328 0.93-20.784 1.4-31.084 1.4-67.472 0-122.568-19.45-175.852-38.26-15.014-5.3-36.946-10.602-60.166-16.212-33.892-8.192-68.938-16.662-85.464-25.996-14.968-8.456-20.606-18.78-16.752-30.69 5.62-17.372 28.832-25.118 75.262-25.118 31.034 0 69.368 3.446 109.95 7.094 6.522 0.586 13.152 1.182 19.836 1.772-55.5-14.944-102.85-22.51-140.97-22.512-43.78 0-72.338 10.174-80.414 28.648-5.704 13.050-0.302 29.47 15.212 46.234l2.302 2.488-3.29 0.812c-1.706 0.422-170.966 42.212-203.418 49.33-7.156 1.57-14.424 2.368-21.602 2.368-25.788 0-46.746-10.246-49.832-24.362-1.492-6.818 0.21-20.192 28.422-33.15l247.416-104.2c8.26-3.052 16.744-6.584 25.726-10.32 27.47-11.434 55.876-23.254 82.27-23.254 10.982 0 21.492 1.144 32.13 3.496 19.154 4.238 67.522 18.566 118.734 33.734 49.85 14.768 101.4 30.038 122.024 34.678 16.184 3.642 32.866 5.414 50.998 5.414 31.258 0 61.932-5.258 93.22-11.114l10.656-1.994v125.686l-7.29 1.416z" />
<glyph unicode="&#xe00b;" glyph-name="hand220" d="M696.484 389.792c-101.996 41.716-121.148 75.244-168.18 81.618-6.754 0.916-12.144-0.298-16.406-2.49 0.462 27.11 1.054 55.098 1.318 58.364 0.676-1.22 1.394-2.426 2.182-3.608 14.572-21.816 42.868-28.492 80.404-3.428 35.676 23.824 55.528 94.202 55.528 94.202s-72.614 8.632-108.29-15.192c-8.894-5.94-15.918-12.084-21.306-18.292 0.894 3.864 1.792 7.528 2.646 11.050 2.898 11.882 5.458 22.418 6.388 33.302 22.526 7.12 36.646 30.216 28.92 71.194-7.958 42.156-64.938 87.976-64.938 87.976s-36.38-63.432-28.426-105.588c6.96-36.896 25.14-53.84 45.898-55.698-1.024-8.23-3.082-16.726-5.554-26.872-1.042-4.272-2.132-8.748-3.214-13.508-3.602 7.566-8.894 15.522-16.132 23.774-28.288 32.254-100.652 42.726-100.652 42.726s0.938-73.118 29.222-105.372c29.762-33.934 58.82-34.816 78.544-17.516 0.146 0.126 0.284 0.262 0.428 0.388-0.248-3.234-0.88-34.076-1.342-61.554-5.524 7.404-14.496 6.372-14.496 6.372-25.828-1.068-84.496-83.332-84.496-83.332-13.706-23.42-16.022-45.114-15.594-60.436 0 0-135.408 75.638-177.424 91.742-41.756 16.004-129.762 4.916-30.316-64.27 62.292-43.336 271.118-200.486 309.148-210.004 47.256-11.828 221.69 15.56 258.806 13.45s116.874-28.698 159.27-47.282v149.836c-35.74 20.002-77.788 77.67-201.936 128.448zM533.508 277.004c-96.758 12.484-67.192 81.944-67.192 81.944 20.6 44.374 29.616 70.97 30.808 87.27l1.436-0.116c3.31-17.088 21.714-41.702 57.838-67.2 70.748-49.938 76.372-114.702-22.89-101.898z" />
<glyph unicode="&#xe00c;" glyph-name="hand221" d="M696.484 395.028c-101.996 41.716-121.148 75.244-168.18 81.618-3.176 0.43-6.042 0.378-8.64-0.010-0.032 0.002-0.058 0.008-0.088 0.010 10.782 12.9 29.368 25.388 48.774 38.394 47.956 32.148 107.638 72.156 107.638 152.398 0 61.654-50.158 111.814-111.812 111.814-25.344 0-49.278-8.312-68.838-23.674-19.558 15.362-43.49 23.674-68.838 23.674-61.656 0-111.81-50.16-111.81-111.814 0-80.512 59.242-120.306 106.85-152.28 19.176-12.884 37.554-25.256 48.758-38.276 0 0 0.68-0.72 1.534-1.922-28.126-12.466-77.298-81.41-77.298-81.41-13.706-23.42-16.022-45.114-15.594-60.436 0 0-135.408 75.638-177.424 91.742-41.756 16.004-129.762 4.916-30.316-64.27 62.292-43.336 271.118-200.486 309.148-210.004 47.256-11.828 221.69 15.56 258.806 13.45s116.874-28.698 159.27-47.282v149.836c-35.744 19.998-77.792 77.666-201.94 128.442zM428.686 730.246c-32.442-9.312-54.232-36.994-54.232-68.874 0-10.952 2.548-21.466 7.578-31.254 1.292-2.514 0.724-5.58-1.378-7.462-1.172-1.050-2.654-1.582-4.142-1.582-1.192 0-2.386 0.34-3.432 1.032-18.866 12.514-30.126 33.008-30.126 54.82 0 36.862 31.614 66.854 70.47 66.854 4.962 0 9.938-0.498 14.784-1.48 2.796-0.568 4.856-2.98 4.968-5.836 0.114-2.862-1.74-5.426-4.49-6.218zM533.508 282.242c-96.758 12.484-67.192 81.944-67.192 81.944 20.6 44.374 29.616 70.97 30.808 87.27l1.436-0.116c3.31-17.088 21.714-41.702 57.838-67.2 70.748-49.938 76.372-114.704-22.89-101.898z" />
<glyph unicode="&#xe00d;" glyph-name="hand222" d="M361.996 756.692c-3.212 0.59-6.35-0.406-8.606-2.432-18.932-15.402-31.236-36.116-35.602-59.936-4.404-23.998-0.152-47.904 12.292-69.134 2.62-4.464 8.178-6.244 12.902-4.122 4.718 2.118 7.084 7.454 5.486 12.378-5.944 18.306-7.208 37.126-3.762 55.94 3.454 18.81 11.312 35.958 23.364 50.964 1.086 1.356 1.774 2.91 2.066 4.514 0.024 0.12 0.042 0.242 0.060 0.362 0.804 5.39-2.804 10.48-8.2 11.466zM696.484 353.276c-101.996 41.716-121.148 75.244-168.18 81.618-9.114 1.236-15.746-1.402-20.464-5.096 0.496 6.258-1.178 13.812-0.99 16.3-0.228 4.822 25.94 29.488 30.224 44.442 6.606-3.18 7.78-6.028 15.426-1.374 6.054 3.682 7.5 13.748 7.472 22.72 59.708 11.194 105.842 84.98 105.842 163.952 0 85.768-54.416 145.168-121.536 145.168-32.85 0-62.642-14.232-84.514-38.81-29.696 23.978-67.164 33.578-104.864 23.524-68.696-18.32-104.322-92.782-82.874-173.208 10.434-39.126 33.292-75.42 62.706-99.572 31.828-26.138 67.386-35.724 100.12-26.996 0.53 0.14 1.056 0.3 1.58 0.454 4.548-11.942 12.584-27.892 20.836-19.372 3.328 3.436 6.284 6.046 8.92 8.070 4.154-6.142 5.3-11.258 6.416-16.266 1.892-8.476 3.852-17.242 18.316-27.872 1.966-1.444 5.214-3.86 4.97-4.786s-4.026-8.87-5.462-14.288c-5.254 3.956-11.402 3.246-11.402 3.246-25.828-1.068-84.496-83.332-84.496-83.332-13.706-23.42-16.024-45.114-15.594-60.436 0 0-135.408 75.638-177.424 91.742-41.756 16.004-129.762 4.916-30.316-64.27 62.292-43.336 271.118-200.486 309.148-210.004 47.256-11.828 221.69 15.56 258.806 13.45s116.874-28.698 159.27-47.282v149.836c-35.74 19.996-77.788 77.666-201.936 128.442zM427.014 535.33c-23.014-6.136-48.928 1.362-72.98 21.114-24.604 20.206-43.786 50.79-52.616 83.904-16.984 63.672 9.38 122.132 61.324 135.984 28.378 7.568 56.762-0.226 79.452-19.238-12.298-22.578-19.448-50.186-19.448-81.256 0-44.564 14.692-87.474 38.226-118.42-9.59-11.088-21.106-18.66-33.958-22.088zM460.18 653.25c-7.274 26.326-4.992 53.178 6.59 77.654 11.496 24.298 30.62 42.992 55.322 54.092 2.998 1.53 6.646 1.7 9.926 0.15 5.504-2.606 7.916-9.096 5.516-14.64-0.052-0.124-0.11-0.248-0.17-0.372-0.774-1.636-1.958-3.108-3.504-4.248-17.218-12.648-30.55-28.788-39.628-47.976-9.080-19.188-13.104-39.734-11.964-61.066 0.304-5.738-3.762-10.784-9.43-11.706-5.674-0.922-11.128 2.572-12.658 8.112zM481.39 480.79c-1.26 5.66-2.636 11.802-7.572 19.14 8.772 4.338 12.174 1.792 14.12 11.656 1.256 6.382-4.074 13.536-10.094 19.334 1.38 1.36 2.726 2.766 4.050 4.214 8.976-7.634 18.704-13.748 28.988-17.976-4.402-10.36-6.95-21.678 2.792-21.952 6.296-0.178 11.104-0.846 14.894-1.73-3-11.296-9.826-19.042-17.434-27.654-3.344-3.784-6.73-7.63-9.842-11.86-1.592 1.522-3.272 2.95-5.042 4.25-11.746 8.63-13.12 14.786-14.86 22.578zM533.508 240.49c-96.758 12.484-67.192 81.944-67.192 81.944 19.928 42.926 28.992 69.188 30.644 85.614 0.622 0.002 1.378-0.010 1.976-0.008 4.078-17.010 22.402-40.902 57.46-65.65 70.75-49.94 76.374-114.706-22.888-101.9z" />
<glyph unicode="&#xe00e;" glyph-name="hands11" d="M399.596 368.83c24.614-23.668 52.446-31.856 56.366-48.546 3.638-15.454-7.938-214-13.67-307.868h177.26c-8.088 92.626-24.292 287.23-19.56 307.868 6.932 30.192 43.914 65.812 59.112 90.406 12.010 19.43 18.108 42.556 18.126 68.746l0.038 240.206c0 14.326-11.72 25.978-26.044 25.978-14.326 0-26.486-11.652-26.486-25.978v-125.924c-0.002-5.090-3.822-8.928-8.88-8.924-5.054 0-8.87 3.822-8.87 8.886v231.122c0 0 0.618 27.352-25.976 27.352-26.592 0-25.984-27.376-25.984-27.376v-214.55c0.032-0.878-0.056-3.824-2.278-6.178-1.126-1.202-3.2-2.628-6.69-2.628-3.512 0-5.598 1.428-6.724 2.628-2.202 2.322-2.292 5.2-2.268 6.048v247.506c0 14.326-11.652 25.98-25.982 25.98-14.32 0-25.982-11.654-25.982-25.98v-247.964c0.052-0.964 0-3.926-2.186-6.306-1.136-1.234-3.22-2.704-6.794-2.704-3.486 0-5.556 1.438-6.678 2.642-2.214 2.386-2.294 5.362-2.25 6.284l-0.052 216.36c0 14.33-11.654 25.986-25.974 25.986-14.332 0-25.984-11.656-25.984-25.986v-280.148c0.040-1.002-0.018-4.786-2.608-7.518-1.106-1.16-3.084-2.548-6.242-2.548-3.196 0-5.162 1.4-6.252 2.574-2.542 2.724-2.55 6.458-2.49 7.532v88.2c0 14.558-11.848 26.404-26.412 26.404-14.56 0-26.4-11.846-26.4-26.404v-132.764c-0.006-73.476 19.544-98.476 54.814-132.414zM499.464 554.472c11.014 0 21.42-3.614 29.912-10.286 8.504 6.672 18.9 10.286 29.914 10.286 26.792 0 48.59-21.8 48.59-48.592 0-34.866-25.938-52.254-46.774-66.226-11.634-7.792-22.63-15.164-24.902-23.168-0.868-2.996-3.574-5.082-6.684-5.144h-0.144c-3.052 0-5.772 1.96-6.73 4.876-2.726 8.308-13.71 15.688-25.334 23.496-20.682 13.894-46.43 31.186-46.43 66.168 0 26.79 21.8 48.59 48.582 48.59zM639.236 12.416h106.97c9.364 71.754 27.034 203.79 31.576 213.938 5.154 11.504 26.372 13.554 47.438 27.222 30.18 19.606 47.77 34.93 57.978 87.972l18.452 95.848c2.018 10.51-4.892 20.708-15.4 22.732-10.516 2.022-20.706-4.88-22.736-15.392l-12.248-63.672c-0.116-0.778-0.636-3.48-2.852-5.094-0.946-0.7-2.554-1.43-4.854-0.984-2.296 0.438-3.532 1.714-4.164 2.708-1.494 2.328-1.008 5.062-0.842 5.79l38.93 202.246c1.988 10.344-4.808 20.38-15.154 22.368-10.334 1.992-20.376-4.802-22.364-15.144l-30.090-156.196c-0.108-0.668-0.57-2.812-2.508-4.222-0.976-0.714-2.672-1.468-5.192-0.98-2.566 0.5-3.882 1.844-4.522 2.894-1.248 2.028-0.876 4.164-0.706 4.856l34.456 179.018c1.992 10.344-4.808 20.376-15.152 22.372-10.334 1.986-20.376-4.806-22.36-15.148l-34.4-178.686c-0.092-0.618-0.556-2.68-2.464-4.054-0.982-0.71-2.688-1.45-5.228-0.958-2.516 0.484-3.808 1.8-4.458 2.824-1.276 2.008-0.938 4.14-0.79 4.77l29.818 154.896c0 0 4.232 19.682-14.962 23.376s-22.56-16.138-22.56-16.138l-32.106-166.854c-0.706-3.656-4.030-6.094-7.638-5.184-4.066 1.024-5.178 7.674-5.178 7.674-9.604-31.174-19.426-51.322-34.89-69.732-13.672-16.282-20.906-27.098-20.906-27.098 0.092-10.782 1.934-21.004 5.56-30.532 7.554-19.856 29.306-50.722 30.114-73.472 0.422-11.804-21.776-94.214-40.684-162.020 2.030-24.648 4.108-49.018 6.116-71.944zM693.896 381.458c3.718 19.336 22.482 32.054 41.826 28.324 7.96-1.528 14.964-5.582 20.172-11.582 7.060 3.644 15.076 4.808 23.016 3.278 19.346-3.73 32.048-22.492 28.334-41.836-4.868-25.254-25.85-34.16-42.724-41.32-9.468-4.024-18.426-7.812-21.554-13.438-1.086-1.972-3.324-3.012-5.536-2.586-0.036 0.008-0.064 0.012-0.102 0.020-2.234 0.472-3.898 2.352-4.104 4.636-0.534 6.098-7.44 12.946-14.772 20.192-13.096 12.988-29.398 29.146-24.556 54.312zM246.216 226.354c4.542-10.148 22.212-142.184 31.576-213.938h133.408c-16.296 56.996-61.598 217.144-61.004 233.96 0.806 22.75 22.558 53.618 30.114 73.472 4.114 10.84 5.954 22.546 5.512 34.992-26.788 25.79-46.81 48.422-55.66 90.618-0.178-2.926-2.21-5.336-5.266-5.922-3.644-0.704-6.934 1.528-7.638 5.184l-32.106 166.854c0 0-3.366 19.834-22.56 16.138s-14.964-23.376-14.964-23.376l29.82-154.896c0.148-0.628 0.486-2.762-0.79-4.77-0.65-1.024-1.944-2.34-4.458-2.824-2.542-0.492-4.246 0.246-5.228 0.958-1.908 1.376-2.372 3.438-2.464 4.054l-34.394 178.686c-1.988 10.342-12.032 17.134-22.364 15.148-10.346-1.996-17.15-12.028-15.154-22.372l34.456-179.018c0.172-0.692 0.544-2.828-0.706-4.856-0.638-1.050-1.956-2.394-4.522-2.894-2.52-0.488-4.214 0.266-5.192 0.98-1.938 1.41-2.4 3.554-2.508 4.222l-30.090 156.196c-1.988 10.342-12.030 17.136-22.362 15.144-10.348-1.986-17.144-12.024-15.156-22.368l38.93-202.246c0.166-0.726 0.654-3.46-0.842-5.79-0.632-0.992-1.868-2.27-4.164-2.708-2.298-0.446-3.908 0.286-4.854 0.984-2.214 1.614-2.736 4.316-2.852 5.094l-12.248 63.672c-2.032 10.512-12.22 17.414-22.736 15.392-10.508-2.026-17.418-12.222-15.4-22.732l18.452-95.848c10.208-53.042 27.798-68.368 57.978-87.972 21.066-13.664 42.282-15.714 47.436-27.218zM245.090 401.478c7.94 1.532 15.956 0.368 23.016-3.278 5.208 6 12.21 10.054 20.172 11.582 19.344 3.73 38.108-8.988 41.826-28.324 4.844-25.168-11.46-41.324-24.556-54.312-7.332-7.246-14.238-14.094-14.772-20.192-0.206-2.286-1.87-4.164-4.104-4.636-0.038-0.008-0.066-0.012-0.102-0.020-2.21-0.426-4.45 0.614-5.536 2.586-3.128 5.626-12.086 9.414-21.554 13.438-16.876 7.16-37.858 16.066-42.724 41.32-3.714 19.344 8.988 38.106 28.334 41.836z" />
<glyph unicode="&#xe00f;" glyph-name="hands12" d="M758.936 635.058c0.004 65.858-25.704 127.838-72.39 174.528-46.686 46.692-108.674 72.408-174.546 72.408-136.162 0-246.936-110.776-246.936-246.936s110.774-246.936 246.936-246.936c136.158 0 246.936 110.776 246.936 246.936zM512 433.82c-110.954 0-201.22 90.286-201.22 201.26 0 7.822 0.522 15.878 1.548 23.952 7.328-10.8 16.040-23.158 25.904-36.734 30.254-41.572 53.504-49.094 78.126-57.062 14.684-4.752 29.868-9.664 48.344-23.338 12.682-9.376 22.060-13.746 29.512-13.746 5.044 0 9.476 1.97 12.472 5.542 1.44 1.716 2.498 3.74 3.134 6.004h0.002c3.194-8.488 6.41-15.666 8.544-20.192 1.292-2.746 3.732-4.936 6.568-6.020 3.478-1.328 9.632-5.732 10.648-13.788 0.404-3.222 0.462-8.742 0.522-14.594 0.164-15.508 0.368-34.81 6.22-48.848-10.232-1.614-20.434-2.436-30.324-2.436zM586.65 572.674c-3.254 0.976-6.658 1.994-10.166 3.078-13.528 4.146-22.474 21.412-25.312 29.962-1.11 3.338-3.654 6.006-6.936 7.27-7.196 2.768-13.41 4.112-19.002 4.112-9.266 0-16.85-3.924-21.368-11.056-4.978-7.87-5.956-20.006-2.9-36.064-8.55 12.218-19.564 19.514-29.46 19.514h-0.324c-7.41 0-19.788 20.494-25.926 38.84l-0.020 0.058c-2.108 7.348-5.348 28.57 4.858 38.438 3.674 3.56 5.346 3.658 5.362 3.658 0.786 0 2.77-1.066 4.736-2.156 3.376-1.876 9.026-5.016 16.018-5.016 1.864 0 3.734 0.224 5.596 0.67 8.538 2.088 15.84 7.944 20.558 16.488 5.988 10.828 7.064 24.776 2.894 37.284-0.338 1.016-0.702 1.948-1.12 2.858 2.636 0.692 5.474 1.392 8.516 2.098 14.466 3.342 33.916 9.56 35.822 24.886 1.686 13.47-11.482 22.232-17.222 25.37-3.2 1.752-7.026 1.916-10.36 0.458-1.006-0.442-6.374-2.638-13.308-2.638-6.1 0-11.408 1.64-16.21 4.998-5 3.512-9.768 5.218-14.572 5.218-4.238 0-8.148-1.318-11.958-4.028h-0.002c-1.446 2.2-3.086 5.040-4.872 8.442-8.462 16.098-22.626 25.34-42.094 27.468 29.066 15.522 60.736 23.39 94.124 23.39 54.406 0 105.368-21.462 143.498-60.432-23.392-6.16-38.852-18.794-44.71-36.546l-26.208-30.106c-19.996-23.62-14.95-44.456-10.166-54.772 8.162-17.602 27.498-30.752 39.338-30.752 1.638 0 3.21 0.234 4.648 0.686 1.98 0.62 3.972 1.5 5.718 2.272 3.012 1.328 6.126 2.698 8.398 2.698 1.88 0 4.888-1.806 8.52-10.38 5.608-13.372 8.422-35.744 10.682-53.714 0.406-3.224 0.776-6.154 1.138-8.882-6.3 2.872-14.16 3.238-20.302 3.238-4.666 0-9.378-0.27-13.372-0.538-4.666 5.138-13.258 7.868-32.26 13.552l-0.274 0.076zM604.252 456.522l5.348 7.612c4.992 6.29 16.298 21.188 18.914 30.214 0.942 1.358 4.020 4.188 7.102 6.976 6.824 6.188 16.17 14.66 23.488 26.75 0.714-1.414 1.498-2.628 2.378-3.684 3.224-3.884 7.742-6.022 12.72-6.022 0.496 0 1 0.022 1.44 0.060-18.488-25.91-43.174-47.316-71.39-61.906zM446.976 141.504c-3.178 7.776-6.734 15.472-10.57 22.884-25.126 48.544-59.63 80.94-93.008 112.272-9.406 8.826-21.384 22.63-34.068 37.25-18.516 21.332-37.664 43.39-50.528 51.802-11.658 7.622-21.184 7.832-28.32 0.626-10.404-10.512-7.334-30.098 9.956-63.5 11.554-22.326 28.308-48.62 46.048-76.462 2.85-4.472 5.746-9.022 8.66-13.61-31.418 34.362-54.49 65.614-68.688 93.040-16.304 31.494-19.62 55.834-9.334 68.522 7.264 8.962 21.090 11.19 38.93 6.27l2.644-0.728-0.638 2.67c-0.332 1.382-33.298 138.722-40.262 164.716-1.532 5.732-3.666 11.26-6.34 16.424-9.602 18.55-24.778 29.814-36.086 26.78-5.456-1.468-14.446-7.668-13.262-32.796l17.166-216.804c0.88-7.078 1.498-14.492 2.154-22.352 2.002-24.018 4.076-48.856 13.906-67.846 4.088-7.902 8.828-15.038 14.48-21.814 10.182-12.202 38.502-41.67 68.484-72.86 29.186-30.368 59.37-61.768 70.39-74.878 8.646-10.29 16.13-21.628 22.88-34.672 5.438-10.504 10-21.344 14.076-32.43h105.49l-1.584 5.386c-12.674 43.064-26.602 83.010-42.576 122.11zM848.63 590.46c-11.308 3.034-26.482-8.23-36.084-26.78-2.672-5.164-4.808-10.692-6.34-16.424-6.964-25.994-39.93-163.334-40.26-164.716l-0.638-2.67 2.642 0.728c17.842 4.92 31.666 2.694 38.932-6.27 10.286-12.688 6.97-37.028-9.334-68.522-14.2-27.426-37.27-58.678-68.688-93.040 2.916 4.588 5.808 9.138 8.66 13.61 17.74 27.842 34.494 54.136 46.046 76.462 17.29 33.402 20.36 52.988 9.956 63.5-7.136 7.206-16.662 6.996-28.32-0.626-12.866-8.412-32.014-30.472-50.53-51.802-12.684-14.62-24.664-28.424-34.068-37.25-33.376-31.334-67.882-63.728-93.008-112.272-3.836-7.412-7.392-15.108-10.57-22.884-15.974-39.1-29.902-79.046-42.576-122.114l-1.584-5.386h105.49c4.076 11.086 8.638 21.926 14.076 32.43 6.75 13.044 14.234 24.384 22.88 34.672 11.022 13.112 41.204 44.512 70.39 74.878 29.982 31.19 58.304 60.658 68.486 72.86 5.654 6.776 10.392 13.912 14.48 21.814 9.832 18.99 11.904 43.828 13.908 67.846 0.658 7.86 1.274 15.274 2.154 22.352l17.166 216.804c1.18 25.132-7.81 31.334-13.266 32.8z" />
<glyph unicode="&#xe010;" glyph-name="hands13" d="M679.492 402.642c29.45-26.75 63.722-40.31 101.868-40.31l0.73 0.002c61.344 0.278 108.918 27.082 141.41 79.67 11.286 18.264 17.020 40.012 17.046 64.642l-0.028 225.864c0 13.47-10.96 24.432-24.434 24.432-13.468 0-24.906-10.96-24.906-24.432v-118.406c0-4.784-3.59-8.392-8.348-8.39-4.754 0-8.336 3.594-8.336 8.36v217.322c0 0 0.574 25.72-24.434 25.72-25.004 0-24.43-25.742-24.43-25.742v-201.75c0.028-0.826-0.054-3.59-2.136-5.804-1.062-1.128-3.016-2.472-6.292-2.472-3.304 0-5.266 1.344-6.332 2.47-2.058 2.184-2.148 4.888-2.126 5.69v232.73c0 13.472-10.958 24.432-24.43 24.432s-24.434-10.958-24.434-24.432v-233.164c0.046-0.91-0.004-3.688-2.054-5.93-1.062-1.16-3.032-2.542-6.386-2.542-3.278 0-5.226 1.354-6.282 2.488-2.086 2.24-2.152 5.040-2.122 5.906l-0.036 203.446c0 13.472-10.96 24.432-24.434 24.432s-24.43-10.958-24.43-24.432v-263.426c0.036-0.948-0.016-4.5-2.454-7.072-1.036-1.092-2.894-2.394-5.876-2.394-3 0-4.848 1.316-5.876 2.42-2.378 2.56-2.39 6.074-2.34 7.082v82.932c0 13.694-11.14 24.83-24.832 24.83s-24.832-11.136-24.832-24.83v-124.836c0.004-69.088 17.492-93.56 51.566-124.506zM107.882 688.146h233.168c0.906 0.046 3.688-0.004 5.93-2.054 1.16-1.064 2.54-3.034 2.54-6.386 0-3.278-1.352-5.226-2.488-6.284-2.238-2.084-5.040-2.152-5.906-2.12l-203.446-0.040c-13.472 0-24.434-10.96-24.434-24.434s10.962-24.428 24.434-24.428h263.426c0.946 0.034 4.5-0.016 7.070-2.454 1.094-1.036 2.394-2.894 2.394-5.876 0-2.998-1.312-4.848-2.418-5.874-2.558-2.38-6.074-2.392-7.082-2.34h-82.934c-13.692 0-24.828-11.14-24.828-24.834 0-13.692 11.136-24.83 24.828-24.83h124.84c69.086 0 93.554 17.488 124.504 51.56 26.75 29.452 40.312 63.722 40.312 101.868l-0.004 0.732c-0.278 61.342-27.082 108.918-79.668 141.41-18.266 11.286-40.016 17.020-64.644 17.046l-225.862-0.028c-13.472 0-24.43-10.958-24.43-24.432 0-13.47 10.958-24.906 24.43-24.906l118.406-0.002c4.786 0 8.39-3.588 8.39-8.346 0-4.754-3.594-8.338-8.36-8.338h-217.324c0 0-25.718 0.574-25.718-24.432s25.742-24.432 25.742-24.432h201.746c0.828 0.030 3.594-0.052 5.808-2.136 1.126-1.060 2.468-3.014 2.468-6.292 0-3.304-1.34-5.266-2.468-6.33-2.184-2.060-4.886-2.148-5.688-2.126h-232.734c-13.468 0-24.43-10.958-24.43-24.432 0.002-13.47 10.962-24.43 24.43-24.43zM344.508 493.358c-29.45 26.75-63.722 40.31-101.868 40.31l-0.73-0.002c-61.344-0.278-108.918-27.082-141.41-79.67-11.286-18.264-17.020-40.012-17.046-64.642l0.028-225.864c0-13.47 10.96-24.432 24.434-24.432 13.468 0 24.906 10.96 24.906 24.432v118.406c0 4.784 3.59 8.392 8.348 8.39 4.754 0 8.336-3.594 8.336-8.36v-217.324c0 0-0.574-25.72 24.434-25.72 25.004 0 24.43 25.742 24.43 25.742v201.752c-0.028 0.826 0.054 3.59 2.136 5.804 1.062 1.128 3.016 2.472 6.292 2.472 3.304 0 5.266-1.344 6.332-2.47 2.058-2.184 2.148-4.888 2.126-5.69v-232.73c0-13.472 10.958-24.432 24.43-24.432s24.434 10.958 24.434 24.432v233.164c-0.046 0.91 0.004 3.688 2.054 5.93 1.062 1.16 3.032 2.542 6.386 2.542 3.278 0 5.226-1.354 6.282-2.488 2.086-2.24 2.152-5.040 2.122-5.906l0.040-203.448c0-13.472 10.96-24.432 24.434-24.432s24.43 10.958 24.43 24.432v263.428c-0.036 0.948 0.016 4.5 2.454 7.072 1.036 1.092 2.894 2.394 5.876 2.394 3 0 4.848-1.316 5.876-2.42 2.378-2.56 2.39-6.074 2.34-7.082v-82.932c0-13.694 11.14-24.83 24.832-24.83s24.832 11.136 24.832 24.83v124.836c-0.008 69.088-17.496 93.56-51.57 124.506zM916.118 207.854h-233.168c-0.906-0.046-3.688 0.004-5.93 2.054-1.16 1.064-2.54 3.034-2.54 6.386 0 3.278 1.352 5.226 2.488 6.284 2.238 2.084 5.040 2.152 5.906 2.12l203.446 0.040c13.472 0 24.434 10.96 24.434 24.434s-10.96 24.43-24.434 24.43h-263.426c-0.946-0.034-4.5 0.016-7.070 2.454-1.094 1.036-2.394 2.894-2.394 5.876 0 2.998 1.312 4.848 2.418 5.874 2.558 2.38 6.074 2.392 7.082 2.34h82.934c13.692 0 24.828 11.14 24.828 24.834 0 13.692-11.136 24.83-24.828 24.83h-124.84c-69.086 0-93.554-17.488-124.504-51.56-26.75-29.452-40.312-63.722-40.312-101.868l0.004-0.732c0.278-61.342 27.082-108.918 79.668-141.41 18.266-11.286 40.016-17.020 64.644-17.046l225.864 0.030c13.472 0 24.43 10.958 24.43 24.432 0 13.47-10.958 24.906-24.43 24.906l-118.406 0.002c-4.786 0-8.39 3.588-8.39 8.346 0 4.754 3.594 8.338 8.36 8.338h217.324c0 0 25.718-0.574 25.718 24.432s-25.742 24.432-25.742 24.432h-201.748c-0.828-0.030-3.594 0.052-5.808 2.136-1.126 1.060-2.468 3.014-2.468 6.292 0 3.304 1.34 5.266 2.468 6.33 2.184 2.060 4.886 2.148 5.688 2.126h232.734c13.468 0 24.43 10.958 24.43 24.432-0.002 13.466-10.962 24.426-24.43 24.426z" />
<glyph unicode="&#xe011;" glyph-name="heart318" d="M774.334 629.252c0 22.608-18.492 41-41.1 41s-41.796-18.392-41.796-41l-0.002-198.704c-0.002-8.028-6.022-14.082-14.006-14.080-7.976 0-13.992 6.032-13.992 14.030v364.702c0 0 0.962 43.162-41 43.162s-41-43.2-41-43.2v-338.564c0.046-1.386-0.090-6.026-3.586-9.742-1.782-1.892-5.056-4.148-10.56-4.148-5.544 0-8.836 2.254-10.622 4.144-3.458 3.664-3.608 8.206-3.568 9.548v390.558c0 22.608-18.39 41-41 41-22.606 0-41-18.392-41-41v-391.286c0.078-1.526-0.004-6.188-3.45-9.952-1.784-1.946-5.088-4.266-10.714-4.266-5.502 0-8.772 2.272-10.544 4.176-3.498 3.758-3.614 8.458-3.554 9.912l-0.068 341.414c0 22.608-18.394 41-41.002 41s-40.998-18.392-40.998-41v-442.068c0.056-1.588-0.026-7.55-4.118-11.868-1.736-1.832-4.858-4.018-9.862-4.018-5.030 0-8.134 2.208-9.856 4.058-3.994 4.296-4.014 10.194-3.928 11.884v139.174c0 22.976-18.696 41.668-41.674 41.668-22.976 0-41.668-18.692-41.668-41.668v-209.494c0-115.938 29.346-157.004 86.526-208.94 49.422-44.888 106.938-67.648 170.948-67.646l1.23 0.002c102.94 0.466 182.78 45.45 237.306 133.698 18.938 30.65 28.562 67.148 28.608 108.48l0.050 379.034zM591.042 187.446c-18.368-12.304-35.71-23.934-39.308-36.566-1.348-4.726-5.626-8.012-10.536-8.118-0.074 0-0.148 0-0.222 0-4.82 0-9.11 3.098-10.622 7.692-4.308 13.118-21.64 24.754-39.984 37.078-32.64 21.926-73.266 49.21-73.266 104.418 0 42.274 34.394 76.672 76.672 76.672 17.376 0 33.79-5.7 47.2-16.234 13.41 10.536 29.824 16.234 47.204 16.234 42.274 0 76.668-34.398 76.668-76.672-0.002-55.020-40.924-82.456-73.806-104.504z" />
<glyph unicode="&#xe012;" glyph-name="heart319" d="M823.126 759.126c-83.104 83.106-193.598 128.874-311.126 128.874s-228.022-45.768-311.126-128.874c-83.106-83.104-128.874-193.598-128.874-311.126s45.768-228.022 128.874-311.126c83.104-83.106 193.598-128.874 311.126-128.874s228.022 45.768 311.126 128.874c83.106 83.104 128.874 193.598 128.874 311.126s-45.768 228.022-128.874 311.126zM850.502 570.572c-28.108 13.7-60.862 25.18-96.674 34.424-19.27 32.476-47.99 58.708-82.346 74.882-9.642 39.704-21.954 75.936-36.912 106.624 100.066-36.346 179.586-115.866 215.932-215.93zM446.926 717.194c22.648 62.39 49.608 90.806 65.074 90.806 15.464 0 42.426-28.416 65.074-90.806 2.3-6.34 4.506-12.88 6.622-19.594-25.17-0.98-49.376-6.79-71.696-17.15-22.322 10.362-46.524 16.17-71.696 17.15 2.116 6.714 4.322 13.254 6.622 19.594zM512 610.488c22.536 17.7 50.114 27.278 79.32 27.278 71.040 0 128.832-57.796 128.832-128.836 0-92.46-68.77-138.558-124.024-175.602-30.864-20.684-60.012-40.222-66.058-61.454-2.262-7.938-9.442-13.468-17.696-13.636-0.122-0.004-0.25-0.004-0.378-0.004-8.102 0-15.308 5.2-17.844 12.922-7.246 22.042-36.364 41.602-67.188 62.308-54.856 36.842-123.118 82.694-123.118 175.464 0 71.040 57.792 128.836 128.836 128.836 29.204 0.002 56.782-9.576 79.318-27.276zM389.43 786.502c-14.958-30.688-27.27-66.92-36.912-106.624-34.356-16.176-63.074-42.408-82.344-74.882-35.812-9.244-68.568-20.726-96.674-34.424 36.344 100.064 115.864 179.584 215.93 215.93zM152 448c0 15.466 28.416 42.426 90.806 65.076 0.36 0.13 0.736 0.254 1.098 0.384-0.036-1.506-0.058-3.016-0.058-4.53 0-52.78 16.952-100.366 50.332-141.598-18.208 4.598-35.408 9.798-51.374 15.594-62.388 22.648-90.804 49.61-90.804 65.074zM173.5 325.428c45.628-22.238 103.476-38.658 166.836-49.094 10.436-63.36 26.854-121.208 49.094-166.836-100.066 36.346-179.586 115.866-215.93 215.93zM577.074 178.806c-22.648-62.39-49.61-90.806-65.074-90.806-15.466 0-42.426 28.416-65.074 90.806-9.096 25.056-16.73 53.15-22.838 83.45 6.266-4.764 11.468-9.17 13.932-12.334 11.344-31.028 40.742-51.688 73.976-51.688 0.584 0 1.166 0.006 1.728 0.020 33.332 0.73 62.048 21.866 72.766 53.090 2.63 3.042 7.636 7.174 13.568 11.628-6.13-30.574-13.816-58.912-22.984-84.166zM634.57 109.498c22.24 45.628 38.658 103.476 49.094 166.836 63.36 10.436 121.208 26.856 166.836 49.094-36.344-100.064-115.864-179.584-215.93-215.93zM781.194 382.926c-16.108-5.848-33.47-11.094-51.862-15.72 33.704 41.328 50.82 88.958 50.82 141.724 0 1.514-0.022 3.024-0.058 4.53 0.362-0.13 0.74-0.254 1.1-0.384 62.39-22.65 90.806-49.61 90.806-65.076s-28.416-42.428-90.806-65.074zM371.126 456.696c1.204-0.798 2.582-1.192 3.954-1.192 1.718 0 3.422 0.614 4.774 1.822 2.426 2.17 3.078 5.706 1.594 8.602-5.8 11.278-8.734 23.392-8.734 36.010 0 36.736 25.11 68.63 62.488 79.362 3.168 0.91 5.304 3.868 5.172 7.162-0.128 3.292-2.5 6.072-5.726 6.724-5.582 1.13-11.312 1.704-17.032 1.704-44.774 0-81.2-34.554-81.2-77.030-0.002-25.132 12.974-48.746 34.71-63.164z" />
<glyph unicode="&#xe013;" glyph-name="heart320" d="M683.54 791.496c-60.636 0-117.626-19.594-164.808-56.662l-6.73-5.44-6.73 5.44c-47.184 37.068-104.172 56.662-164.808 56.662-147.64 0-267.762-120.124-267.762-267.76 0-195.056 145.286-292.65 262.040-371.056 24.332-16.342 47.952-32.22 69.14-48.176-12.654 31.4-34.184 46.764-35.464 47.65-3.406 2.37-4.662 6.232-4.658 10.238h-0.006l-0.148 190.356c0.016 5.054 3.106 9.6 7.804 11.472l79.402 31.658 18.594 15.668c4.906 4.138 12.15 3.844 16.708-0.674l25.926-25.716 25.846 25.706c4.556 4.53 11.81 4.832 16.72 0.686l18.592-15.668 79.398-31.658c4.72-1.876 7.806-6.446 7.806-11.52l-0.058-190.346c-0.004-4.018-1.95-7.784-5.218-10.108-1.23-0.884-22.258-16.462-34.76-47.56 21.126 15.892 44.662 31.712 68.9 47.992 116.754 78.406 262.040 176 262.040 371.056-0.006 147.638-120.126 267.76-267.766 267.76zM512.23 417.69v-0.012c-0.040 0-0.084 0-0.128 0-0.014 0-0.042 0-0.070 0h-0.024c-0.022 0-0.028 0-0.028 0-0.042 0-0.064 0-0.086 0-0.042 0-0.086 0-0.128 0v0.012c-48.812-0.746-78.488 41.992-79.242 112.438-0.498 48.874 29.802 76.814 79.168 78.128v0.020c0.068 0 0.128-0.008 0.21-0.008v0.008c0.026 0 0.066 0 0.104-0.008 0.030 0.008 0.068 0.008 0.096 0.008v-0.008c0.084 0 0.144 0.008 0.216 0.008v-0.020c49.366-1.314 79.67-29.256 79.166-78.128-0.758-70.446-30.44-113.184-79.254-112.438z" />
<glyph unicode="&#xe014;" glyph-name="home163" d="M330.248 584.498v-131.86c0-36.774 29.918-66.696 66.692-66.696h66.694v130.836h96.732v-130.836h66.694c36.774 0 66.692 29.922 66.692 66.696v131.856c12.012 2.784 23.036 8.876 31.974 17.808 26 26.002 26 68.316 0 94.318l-166.566 166.564c-12.598 12.6-29.344 19.536-47.16 19.536s-34.564-6.936-47.162-19.536l-166.566-166.564c-26-26.002-26-68.316 0.004-94.318 8.932-8.934 19.96-15.020 31.972-17.804zM446.976 140.778c-3.178 7.778-6.734 15.474-10.572 22.884-25.126 48.544-59.63 80.94-93.008 112.272-9.404 8.826-21.384 22.632-34.068 37.25-18.516 21.332-37.664 43.39-50.53 51.804-11.658 7.62-21.184 7.832-28.32 0.624-10.404-10.512-7.334-30.096 9.956-63.5 11.554-22.326 28.308-48.622 46.048-76.462 2.85-4.472 5.744-9.020 8.658-13.61-31.418 34.364-54.492 65.614-68.688 93.040-16.304 31.496-19.622 55.834-9.334 68.522 7.264 8.962 21.090 11.19 38.93 6.27l2.644-0.726-0.638 2.67c-0.33 1.382-33.296 138.722-40.26 164.716-1.532 5.732-3.668 11.26-6.342 16.426-9.602 18.55-24.776 29.812-36.084 26.78-5.458-1.466-14.446-7.67-13.262-32.796l17.166-216.804c0.88-7.078 1.498-14.492 2.154-22.352 2.002-24.020 4.076-48.858 13.906-67.846 4.088-7.902 8.826-15.040 14.48-21.814 10.18-12.202 38.5-41.668 68.484-72.862 29.186-30.366 59.368-61.766 70.39-74.876 8.646-10.29 16.128-21.628 22.88-34.674 5.438-10.504 10-21.344 14.076-32.43h105.49l-1.584 5.386c-12.668 43.064-26.598 83.008-42.572 122.108zM848.63 589.736c-11.308 3.034-26.482-8.228-36.084-26.78-2.674-5.166-4.81-10.694-6.342-16.426-6.962-25.994-39.93-163.334-40.26-164.716l-0.638-2.67 2.644 0.726c17.84 4.92 31.666 2.694 38.93-6.27 10.288-12.688 6.97-37.026-9.334-68.522-14.198-27.426-37.27-58.676-68.688-93.040 2.916 4.59 5.808 9.136 8.658 13.61 17.74 27.842 34.494 54.136 46.048 76.462 17.29 33.404 20.36 52.988 9.956 63.5-7.136 7.208-16.664 6.996-28.32-0.624-12.866-8.414-32.014-30.472-50.53-51.804-12.684-14.618-24.664-28.424-34.068-37.25-33.376-31.332-67.882-63.726-93.008-112.272-3.838-7.41-7.392-15.108-10.572-22.884-15.974-39.1-29.904-79.044-42.576-122.112l-1.584-5.386h105.49c4.076 11.086 8.638 21.926 14.076 32.43 6.752 13.044 14.234 24.384 22.88 34.674 11.022 13.112 41.206 44.512 70.39 74.876 29.984 31.194 58.302 60.66 68.484 72.862 5.654 6.776 10.392 13.912 14.48 21.814 9.83 18.988 11.904 43.826 13.906 67.846 0.658 7.86 1.274 15.274 2.154 22.352l17.166 216.804c1.19 25.13-7.8 31.332-13.258 32.8z" />
<glyph unicode="&#xe015;" glyph-name="home164" d="M470.454 399.6c11.098-7.452 21.574-14.494 28.386-22.056 3.312-3.682 8.036-5.786 12.984-5.786 0.016 0 0.028 0 0.046 0 4.972 0.014 9.696 2.142 13 5.854 6.656 7.468 17.128 14.488 28.218 21.922 27.458 18.408 61.632 41.318 61.632 86.694 0 34.468-28.040 62.512-62.508 62.512-14.156 0-27.46-4.574-38.48-13.23l-1.732-1.364-1.734 1.364c-11.016 8.654-24.32 13.228-38.476 13.228-34.468 0-62.512-28.044-62.512-62.512 0-45.536 33.918-68.32 61.176-86.626zM910.7 347.746c-54.402 10.542-106.094 17.938-158.024 22.612-10.328 0.93-20.786 1.4-31.086 1.4-6.292 0-12.48-0.17-18.566-0.492v53.472c8.758 4.088 16.792 9.708 23.742 16.652 32.524 32.522 32.524 85.442 0 117.966l-155.778 155.778c-15.754 15.756-36.7 24.434-58.988 24.434s-43.234-8.678-58.984-24.432l-155.782-155.78c-32.524-32.526-32.52-85.446 0-117.96 6.942-6.948 14.98-12.568 23.742-16.656v-108.446c0-0.488 0.024-0.968 0.032-1.454-52.54 12.89-123.368 30.166-143.18 34.51-7.156 1.57-14.426 2.366-21.606 2.366-25.786 0-46.742-10.246-49.832-24.36-1.488-6.82 0.21-20.192 28.426-33.15l247.414-104.2c8.262-3.052 16.742-6.584 25.726-10.32 27.468-11.432 55.876-23.254 82.27-23.252 10.98 0 21.492 1.144 32.128 3.496 19.152 4.238 67.524 18.566 118.734 33.734 49.852 14.766 101.398 30.036 122.024 34.678 16.184 3.642 32.864 5.414 50.996 5.414 31.258 0 61.934-5.256 93.218-11.112l10.656-1.994v125.686l-7.282 1.41zM383.356 260.598c5.622-17.372 28.832-25.118 75.262-25.118 31.036 0 69.368 3.446 109.95 7.094 6.524 0.586 13.152 1.182 19.836 1.772-55.496-14.942-102.848-22.51-140.968-22.51-43.782 0-72.34 10.172-80.414 28.648-5.704 13.050-0.3 29.47 15.214 46.234l2.3 2.488-3.29 0.812c-0.316 0.078-6.394 1.578-16.278 4.012-1.218 3.876-1.91 7.984-1.91 12.262v123.324c0 9.788-6.754 18.284-16.292 20.496-7.446 1.726-14.282 5.538-19.774 11.034-16.122 16.116-16.122 42.34-0.004 58.456l155.786 155.782c7.804 7.806 18.184 12.106 29.226 12.106s21.422-4.3 29.226-12.11l155.782-155.778c16.118-16.116 16.118-42.34 0.004-58.454-5.5-5.5-12.34-9.316-19.778-11.040-9.54-2.208-16.29-10.706-16.29-20.498v-73.060c-41.5-7.040-78.778-20.194-115.208-33.054-15.016-5.3-36.946-10.6-60.168-16.212-33.89-8.192-68.938-16.662-85.46-25.996-14.968-8.454-20.604-18.78-16.752-30.69z" />
<glyph unicode="&#xe016;" glyph-name="home165" d="M873.39 553.324l-281.648 281.648c-21.298 21.298-49.626 33.028-79.742 33.028s-58.446-11.73-79.74-33.028l-281.648-281.648c-43.968-43.968-43.968-115.508 0.004-159.476 15.096-15.098 33.75-25.41 54.058-30.102v-222.964c0-62.18 50.6-112.782 112.782-112.782h389.090c62.184 0 112.782 50.602 112.782 112.782v222.96c20.306 4.692 38.958 15.008 54.062 30.106 43.966 43.968 43.966 115.508 0 159.476zM583.93 262.726c-26.388-17.68-51.308-34.386-56.478-52.536-1.934-6.79-8.074-11.516-15.13-11.66-0.104-0.004-0.212-0.004-0.322-0.004-6.928 0-13.088 4.45-15.258 11.050-6.194 18.844-31.090 35.562-57.446 53.27-46.898 31.5-105.262 70.704-105.262 150.020 0 60.734 49.414 110.152 110.154 110.152 24.966 0 48.544-8.192 67.812-23.324 19.268 15.132 42.848 23.324 67.816 23.324 60.736 0 110.148-49.418 110.148-110.152 0.002-79.050-58.796-118.464-106.034-150.14z" />
<glyph unicode="&#xe017;" glyph-name="insurance4" d="M610.926 512.114c64.974 43.556 145.838 97.762 145.838 206.486 0 83.534-67.958 151.498-151.494 151.498-34.342 0-66.77-11.262-93.272-32.076-26.496 20.812-58.928 32.076-93.268 32.076-83.536 0-151.498-67.962-151.498-151.498 0-109.088 80.27-163.006 144.772-206.328 36.246-24.35 70.488-47.346 79.004-73.266 2.984-9.082 11.458-15.194 20.982-15.194 0.152 0 0.304 0 0.446 0.002 9.706 0.198 18.15 6.702 20.808 16.036 7.118 24.964 41.392 47.94 77.682 72.264zM421.69 803.698c-43.954-12.618-73.48-50.122-73.48-93.32 0-14.836 3.452-29.084 10.272-42.344 1.746-3.406 0.978-7.564-1.876-10.116-1.586-1.42-3.592-2.142-5.61-2.142-1.614 0-3.234 0.462-4.648 1.402-25.56 16.954-40.818 44.722-40.818 74.274 0 49.946 42.834 90.578 95.482 90.578 6.726 0 13.464-0.672 20.030-2.002 3.794-0.768 6.58-4.036 6.734-7.908 0.152-3.874-2.358-7.352-6.086-8.422zM446.976 153.402c-3.178 7.778-6.734 15.474-10.572 22.884-25.126 48.544-59.63 80.94-93.008 112.272-9.406 8.826-21.384 22.632-34.068 37.25-18.516 21.332-37.664 43.39-50.53 51.804-11.658 7.62-21.184 7.832-28.32 0.624-10.404-10.512-7.334-30.096 9.956-63.5 11.554-22.328 28.308-48.622 46.048-76.464 2.85-4.472 5.744-9.020 8.658-13.61-31.418 34.364-54.492 65.614-68.688 93.040-16.304 31.496-19.622 55.834-9.334 68.522 7.264 8.964 21.090 11.19 38.93 6.27l2.644-0.726-0.638 2.67c-0.33 1.384-33.296 138.722-40.26 164.716-1.532 5.734-3.666 11.26-6.34 16.424-9.602 18.552-24.776 29.814-36.084 26.78-5.458-1.468-14.446-7.67-13.262-32.796l17.166-216.804c0.88-7.080 1.498-14.494 2.154-22.352 2.002-24.018 4.076-48.858 13.906-67.846 4.088-7.902 8.826-15.040 14.48-21.814 10.182-12.202 38.5-41.67 68.484-72.862 29.186-30.366 59.368-61.766 70.39-74.878 8.646-10.29 16.128-21.626 22.88-34.672 5.438-10.504 10-21.344 14.076-32.43h105.49l-1.584 5.386c-12.67 43.066-26.6 83.010-42.574 122.112zM848.63 602.358c-11.308 3.034-26.482-8.228-36.084-26.78-2.674-5.166-4.81-10.692-6.342-16.424-6.962-25.994-39.93-163.334-40.26-164.716l-0.638-2.67 2.644 0.726c17.84 4.92 31.666 2.694 38.93-6.27 10.286-12.688 6.97-37.026-9.334-68.522-14.198-27.426-37.27-58.676-68.688-93.040 2.916 4.588 5.808 9.138 8.658 13.61 17.74 27.842 34.494 54.136 46.048 76.464 17.29 33.402 20.36 52.988 9.956 63.5-7.136 7.208-16.664 6.996-28.32-0.624-12.866-8.414-32.014-30.472-50.53-51.804-12.684-14.618-24.664-28.424-34.068-37.25-33.378-31.332-67.882-63.726-93.008-112.272-3.838-7.412-7.394-15.108-10.572-22.884-15.974-39.1-29.904-79.044-42.576-122.112l-1.584-5.386h105.49c4.076 11.086 8.638 21.926 14.076 32.43 6.752 13.044 14.234 24.382 22.88 34.672 11.022 13.112 41.206 44.512 70.39 74.878 29.984 31.192 58.302 60.662 68.484 72.862 5.654 6.774 10.392 13.912 14.48 21.814 9.83 18.988 11.904 43.828 13.906 67.846 0.656 7.86 1.274 15.272 2.154 22.352l17.166 216.804c1.19 25.126-7.8 31.328-13.258 32.796z" />
<glyph unicode="&#xe018;" glyph-name="ribbon61" d="M403.29 371.564c-86.812-107.196-174.336-195.338-175.286-196.282-8.026-8.066-8.004-21.106 0.058-29.136l58.372-58.18c4.018-4.008 9.28-6.008 14.544-6.008 5.28 0 10.562 2.020 14.59 6.054 3.814 3.828 83.472 83.96 168.916 187.538-27.052 30.522-61.136 71.598-81.194 96.014zM796.098 174.996c-0.924 0.936-22.964 23.402-55.276 58.81-13.812 15.13-30.278 32.662-47.796 51.31-32.13 34.2-155.58 172.616-200.538 231.506-88.486 115.91-72.5 152.472-71.888 153.892 2.236 5.162 23.808 19.906 91.308 19.906 39.314 0 56.978-8.17 59.258-13.66 0.652-1.564 13.022-34.796-49.388-139.68 3.76-4.73 46.5-58.454 82.522-100.99 19.722 30.222 36.31 58.58 49.52 84.692 42.86 84.706 53.172 151.232 31.518 203.38-12.798 30.822-36.594 55.102-68.818 70.214-28.206 13.232-62.422 19.662-104.612 19.662-51.122 0-91.886-6.514-124.634-19.918-38.612-15.802-65.574-40.876-80.128-74.522-29.382-67.912-2.228-155.548 85.456-275.812 9.142-12.542 136.808-171.754 210.374-243.364l0.262-0.282c17.036-18.132 33.124-35.26 46.278-49.672 34.824-38.156 58.234-61.948 58.47-62.184 7.98-8.106 21.020-8.204 29.122-0.222l58.746 57.8c8.1 7.976 8.208 21.016 0.244 29.134z" />
<glyph unicode="&#xe019;" glyph-name="ribbon62" d="M953 559.55c0 147.976-120.4 268.356-268.318 268.356-60.796 0-117.908-19.638-165.266-56.804l-7.416-5.824-7.422 5.858c-47.288 37.132-104.458 56.772-165.192 56.772-147.974-0.002-268.386-120.38-268.386-268.358 0-184.448 129.616-281.908 242.52-358.372 21.72 22.586 69.97 73.95 117.938 133.188 14.858-18.086 40.118-48.52 60.158-71.128-39.832-48.292-77.958-89.68-101.462-114.458 25.458-18.368 48.146-36.704 65.344-55.814 14.214-15.832 34.526-24.874 55.734-24.874 0.084 0 0.162 0 0.238 0 21.296 0.074 41.614 9.206 55.814 25.138 17.084 19.198 40.088 37.71 66.004 56.332-5.696 6.088-12.21 13.11-19.41 21.008-9.744 10.676-21.67 23.36-34.288 36.796l-0.184 0.212c-54.504 53.052-149.086 171.004-155.864 180.286-64.958 89.104-85.080 154.032-63.306 204.346 10.782 24.92 30.758 43.502 59.358 55.206 24.266 9.932 54.456 14.756 92.342 14.756 31.256 0 56.602-4.766 77.502-14.564 23.872-11.198 41.504-29.186 50.984-52.020 16.036-38.632 8.39-87.918-23.36-150.678-9.786-19.336-22.082-40.342-36.686-62.742-26.688 31.514-58.35 71.318-61.138 74.816 46.244 77.706 37.072 102.332 36.594 103.478-1.686 4.074-14.776 10.13-43.896 10.13-50.012 0-65.998-10.928-67.644-14.752-0.454-1.050-12.298-28.138 53.25-114.016 33.316-43.626 124.764-146.172 148.57-171.504 12.986-13.814 25.176-26.804 35.406-38.014 11.538-12.64 21.276-23.018 28.382-30.496 113.478 76.708 243.1 174.606 243.1 357.74z" />
<glyph unicode="&#xe01a;" glyph-name="shake1" d="M684.704 828c-60.792 0-117.938-19.64-165.266-56.814l-7.434-5.852-7.45 5.858c-47.308 37.168-104.448 56.808-165.232 56.808-76.872 0-146.306-32.502-195.292-84.472 20.086-9.72 65.932-25.438 157.904-30.010 22.142-1.104 87.526-5.178 91.084-6.004 3.99-0.476 9.092-2.094 9.41-6.194 1.388-18.626-15.542-26.846-29.048-27.286-10.588-0.344-65.528 1.446-74.418-14.998-4.058-7.488 18.13-25.12 25.016-31.578 8.576-8.056 17.172-16.108 25.77-24.158 23.434-21.952 47.65-44.642 71.316-67.128 4.824-4.584 23.792-24.254 13.91-34.14-9.888-9.884-29.316 6.518-36.174 12.9-17.578 16.356-80.344 69.564-82.886 67.304l-0.22-0.202c-2.946-2.95 95.504-100.516 95.504-100.516s29.64-27.628 18.548-38.72c-11.096-11.098-38.718 15.678-45.424 21.936-21.328 19.85-98.41 86.426-100.824 84.016-1.7-1.738 66.716-73.43 87.164-93.002 7.152-6.86 30.856-29.89 20.542-40.202-10.304-10.32-34.61 11.498-40.626 17.064-19.202 17.76-96.654 83.608-98.346 81.922l-0.144-0.144c-1.732-1.796 44.36-52.592 62.964-70.072 5.508-5.156 11.010-10.938 13.99-18.19 2.964-7.21 2.826-11.62-0.488-15.226-0.118-0.138-0.244-0.258-0.372-0.384-3.578-3.58-8.528-4.016-14.696-1.302-7.218 3.184-13.058 6.82-17.338 10.802-45.64 42.386-83.57 76.546-116.968 109.95-14.358 14.344-29.818 52.024-45.418 80.876-9.292 17.184-29.816 34.272-44.896 45.28-11.61-29.982-17.978-62.54-17.978-96.566 0-195.552 145.644-293.384 262.706-372.002 47.648-31.986 92.636-62.24 121.878-94.706 14.23-15.806 34.512-24.848 55.778-24.848 0.076 0 0.134 0 0.188 0 21.354 0.062 41.648 9.196 55.836 25.136 28.588 32.074 73.56 62.214 121.192 94.132 16.57 11.116 33.71 22.61 50.936 34.688-10.658 15.192-29.624 39.392-48.734 49.718-28.844 15.6-66.526 31.072-80.872 45.416-33.4 33.4-67.566 71.33-109.956 116.97-3.97 4.292-7.606 10.13-10.79 17.35-2.724 6.168-2.29 11.112 1.29 14.694 0.128 0.122 0.258 0.244 0.384 0.372 3.608 3.308 8.014 3.448 15.24 0.482 7.238-2.986 13.022-8.488 18.192-13.984 17.462-18.618 68.266-64.708 70.062-62.964l0.142 0.144c1.678 1.68-64.168 79.144-81.926 98.34-5.568 6.016-27.384 30.314-17.064 40.63 10.312 10.312 33.342-13.396 40.208-20.554 19.562-20.442 91.256-88.854 92.998-87.154 2.406 2.404-64.168 79.498-84.012 100.814-6.266 6.71-33.032 34.34-21.946 45.424 11.098 11.096 38.728-18.544 38.728-18.544s97.556-98.444 100.508-95.502l0.206 0.22c2.258 2.548-50.954 65.31-67.308 82.888-6.378 6.856-22.786 26.284-12.898 36.172 9.882 9.888 29.568-9.084 34.14-13.916 22.486-23.66 45.182-47.882 67.134-71.31 8.042-8.598 16.102-17.188 24.15-25.776 6.46-6.878 24.098-29.074 31.582-25.016 16.44 8.9 14.648 63.83 15 74.428 0.44 13.508 8.654 30.438 27.282 29.038 4.104-0.306 5.714-5.42 6.2-9.406 0.826-3.558 4.898-68.94 6.004-91.088 4.276-86.11 18.332-131.792 28.078-153.736 72.976 65.566 131.686 150.212 131.686 273.446 0.002 148.022-120.402 268.448-268.406 268.448z" />
<glyph unicode="&#xe01b;" glyph-name="track" d="M774.36 629.252c0 22.608-18.394 41-41 41-22.608 0-41.896-18.392-41.896-41l-0.002-198.704c-0.002-8.028-6.024-14.082-14.006-14.080-7.976 0-13.992 6.032-13.992 14.030v364.702c0 0 0.962 43.162-41 43.162s-41-43.2-41-43.2v-338.564c0.046-1.386-0.092-6.026-3.586-9.742-1.782-1.892-5.056-4.148-10.56-4.148-5.544 0-8.836 2.254-10.622 4.144-3.458 3.664-3.608 8.206-3.568 9.548v390.558c0 22.608-18.392 41-41 41-22.606 0-41-18.392-41-41v-391.286c0.076-1.526-0.004-6.188-3.45-9.952-1.784-1.946-5.088-4.266-10.714-4.266-5.502 0-8.772 2.272-10.544 4.176-3.498 3.758-3.614 8.458-3.554 9.912l-0.068 341.414c0 22.608-18.396 41-41.002 41-22.608 0-40.998-18.392-40.998-41v-442.068c0.056-1.588-0.026-7.55-4.118-11.868-1.736-1.832-4.858-4.018-9.862-4.018-5.030 0-8.134 2.208-9.856 4.058-3.996 4.296-4.014 10.194-3.928 11.884v139.174c0 22.976-18.698 41.668-41.674 41.668s-41.668-18.692-41.668-41.668v-209.494c0-115.938 29.346-157.004 86.526-208.94 49.42-44.888 106.938-67.648 170.948-67.646l1.23 0.002c102.94 0.466 182.78 45.45 237.304 133.698 18.938 30.65 28.564 67.148 28.61 108.48l0.050 379.034zM581.452 360.948c17.284 0 27.704-28.012 27.704-43.34 0-15.282-12.398-27.726-27.704-27.726-15.3 0-27.704 12.446-27.704 27.726 0 15.298 10.418 43.34 27.704 43.34zM511.88 360.948c17.286 0 27.704-28.012 27.704-43.34 0-15.282-12.398-27.726-27.704-27.726-15.3 0-27.704 12.446-27.704 27.726 0.002 15.298 10.424 43.34 27.704 43.34zM426.518 267.334c0 15.3 10.42 43.34 27.708 43.34 17.286 0 27.7-28.012 27.7-43.34 0-15.282-12.394-27.73-27.7-27.73s-27.708 12.45-27.708 27.73zM640.552 172.030c-23.036-40.492-41.19-4.782-91.986-4.782-50.838 0-67.734-36.144-91.99 4.782-12.664 21.442 29.25 38.172 42.786 50.782 16.796 15.746 20.964 44.356 49.206 44.356 26.88 0 32.642-28.164 49.482-42.816 14.914-13.002 56.104-28.356 42.502-52.322zM639.108 239.604c-15.296 0-27.7 12.45-27.7 27.73 0 15.3 10.418 43.34 27.7 43.34 17.286 0 27.708-28.012 27.708-43.34-0.002-15.28-12.404-27.73-27.708-27.73z" />
<glyph unicode="&#xe01c;" glyph-name="water67" d="M774.060 629.252c0 22.608-18.392 41-41 41s-41.598-18.392-41.598-41l-0.002-198.704c-0.002-8.028-6.022-14.082-14.006-14.080-7.976 0-13.992 6.032-13.992 14.030v364.702c0 0 0.962 43.162-41 43.162s-41-43.2-41-43.2v-338.564c0.046-1.386-0.090-6.026-3.586-9.742-1.782-1.892-5.056-4.148-10.56-4.148-5.544 0-8.836 2.254-10.622 4.144-3.458 3.664-3.608 8.206-3.568 9.548v390.558c0 22.608-18.39 41-41 41-22.606 0-41-18.392-41-41v-391.286c0.078-1.526-0.004-6.188-3.45-9.952-1.784-1.946-5.088-4.266-10.714-4.266-5.502 0-8.772 2.272-10.544 4.176-3.498 3.758-3.614 8.458-3.554 9.912l-0.068 341.414c0 22.608-18.394 41-41.002 41s-40.998-18.392-40.998-41v-442.068c0.056-1.588-0.026-7.55-4.118-11.868-1.736-1.832-4.858-4.018-9.862-4.018-5.030 0-8.134 2.208-9.856 4.058-3.994 4.296-4.014 10.194-3.928 11.884v139.174c0 22.976-18.696 41.668-41.674 41.668-22.976 0-41.668-18.692-41.668-41.668v-209.494c0-115.938 29.346-157.004 86.526-208.94 49.422-44.888 106.938-67.648 170.948-67.646l1.23 0.002c102.94 0.466 182.78 45.45 237.306 133.698 18.938 30.65 28.562 67.148 28.608 108.48l-0.248 379.034zM609.364 168.142c-16.528-15.702-39.084-24.346-63.512-24.346s-46.988 8.646-63.516 24.346c-17.078 16.23-26.484 39.028-26.484 64.202 0 55.384 82.066 122.588 85.558 125.424 2.59 2.098 6.292 2.098 8.882 0 3.492-2.834 85.558-70.040 85.558-125.424 0.002-25.174-9.404-47.972-26.486-64.202z" />
<glyph unicode="&#xe01d;" glyph-name="water68" d="M479.708 413.47c36.094 0 69.418 12.774 93.836 35.972 25.242 23.98 39.14 57.664 39.14 94.856 0 81.832-121.254 181.126-126.414 185.312-3.824 3.102-9.3 3.102-13.126 0-5.16-4.188-126.414-103.48-126.414-185.312 0-37.192 13.898-70.876 39.136-94.856 24.422-23.198 57.75-35.972 93.842-35.972zM388.154 535.998c2.918 0.922 6.046-0.536 7.296-3.394 7.43-16.984 17.79-32.024 30.79-44.7 11.898-11.606 25.726-20.996 41.102-27.91 2.8-1.262 4.246-4.472 3.368-7.484-0.782-2.664-3.168-4.426-5.792-4.426-0.344 0-0.692 0.032-1.040 0.094-19.96 3.546-37.906 12.632-51.89 26.278-14.696 14.328-24.382 33.188-28.020 54.532-0.528 3.084 1.268 6.092 4.186 7.010zM910.698 355.378c-54.402 10.542-106.092 17.938-158.024 22.612-10.326 0.93-20.784 1.4-31.084 1.4-67.472 0-122.568-19.45-175.852-38.26-15.014-5.3-36.946-10.6-60.166-16.212-33.892-8.192-68.938-16.662-85.464-25.996-14.968-8.456-20.606-18.78-16.752-30.69 5.62-17.372 28.832-25.118 75.262-25.118 31.034 0 69.368 3.446 109.95 7.094 6.522 0.586 13.152 1.182 19.836 1.772-55.5-14.942-102.85-22.51-140.97-22.51-43.78 0-72.338 10.172-80.414 28.648-5.704 13.050-0.302 29.47 15.212 46.234l2.302 2.488-3.29 0.812c-1.706 0.422-170.966 42.214-203.418 49.332-7.156 1.57-14.424 2.366-21.602 2.366-25.788 0-46.746-10.246-49.832-24.36-1.492-6.82 0.21-20.192 28.422-33.15l247.416-104.2c8.26-3.052 16.744-6.584 25.726-10.32 27.47-11.432 55.876-23.254 82.27-23.252 10.982 0 21.492 1.144 32.13 3.496 19.154 4.238 67.524 18.566 118.734 33.734 49.85 14.766 101.4 30.036 122.024 34.678 16.184 3.642 32.866 5.414 50.998 5.414 31.258 0 61.932-5.256 93.22-11.112l10.656-1.994v125.686l-7.29 1.408z" />
<glyph unicode="&#xe900;" glyph-name="clock" d="M658.744 210.744l-210.744 210.746v282.51h128v-229.49l173.256-173.254zM512 960c-282.77 0-512-229.23-512-512s229.23-512 512-512 512 229.23 512 512-229.23 512-512 512zM512 64c-212.078 0-384 171.922-384 384s171.922 384 384 384c212.078 0 384-171.922 384-384s-171.922-384-384-384z" />
<glyph unicode="&#xe901;" glyph-name="facebook" d="M608 768h160v192h-160c-123.514 0-224-100.486-224-224v-96h-128v-192h128v-512h192v512h160l32 192h-192v96c0 17.346 14.654 32 32 32z" />
<glyph unicode="&#xe902;" glyph-name="google-plus" d="M325.8 502.6v-111.8h184.8c-7.4-48-55.8-140.6-184.8-140.6-111.2 0-202 92.2-202 205.8s90.8 205.8 202 205.8c63.4 0 105.6-27 129.8-50.2l88.4 85.2c-56.8 53-130.4 85.2-218.2 85.2-180.2-0.2-325.8-145.8-325.8-326s145.6-325.8 325.8-325.8c188 0 312.8 132.2 312.8 318.4 0 21.4-2.4 37.8-5.2 54h-307.6zM1024 512h-96v96h-96v-96h-96v-96h96v-96h96v96h96z" />
<glyph unicode="&#xe903;" glyph-name="linkedin" d="M384 576h177.106v-90.782h2.532c24.64 44.194 84.958 90.782 174.842 90.782 186.946 0 221.52-116.376 221.52-267.734v-308.266h-184.61v273.278c0 65.184-1.334 149.026-96.028 149.026-96.148 0-110.82-70.986-110.82-144.292v-278.012h-184.542v576zM64 576h192v-576h-192v576zM256 736c0-53.020-42.98-96-96-96s-96 42.98-96 96c0 53.020 42.98 96 96 96s96-42.98 96-96z" />
<glyph unicode="&#xe904;" glyph-name="mail" d="M170.667 832h682.667q52.992 0 90.496-37.504t37.504-90.496v-512q0-52.992-37.504-90.496t-90.496-37.504h-682.667q-52.992 0-90.496 37.504t-37.504 90.496v512q0 52.992 37.504 90.496t90.496 37.504zM896 192v466.005l-357.333-285.995q-11.349-9.344-26.667-9.344t-26.667 9.344l-357.333 285.995v-466.005q0-17.664 12.501-30.165t30.165-12.501h682.667q17.664 0 30.165 12.501t12.501 30.165zM853.333 746.667h-682.667q-6.315 0-13.995-2.347l355.328-284.331 355.328 284.331q-7.68 2.347-13.995 2.347z" />
<glyph unicode="&#xe905;" glyph-name="phone" d="M704 320c-64-64-64-128-128-128s-128 64-192 128-128 128-128 192 64 64 128 128-128 256-192 256-192-192-192-192c0-128 131.5-387.5 256-512s384-256 512-256c0 0 192 128 192 192s-192 256-256 192z" />
<glyph unicode="&#xe906;" glyph-name="twitter" d="M1024 733.6c-37.6-16.8-78.2-28-120.6-33 43.4 26 76.6 67.2 92.4 116.2-40.6-24-85.6-41.6-133.4-51-38.4 40.8-93 66.2-153.4 66.2-116 0-210-94-210-210 0-16.4 1.8-32.4 5.4-47.8-174.6 8.8-329.4 92.4-433 219.6-18-31-28.4-67.2-28.4-105.6 0-72.8 37-137.2 93.4-174.8-34.4 1-66.8 10.6-95.2 26.2 0-0.8 0-1.8 0-2.6 0-101.8 72.4-186.8 168.6-206-17.6-4.8-36.2-7.4-55.4-7.4-13.6 0-26.6 1.4-39.6 3.8 26.8-83.4 104.4-144.2 196.2-146-72-56.4-162.4-90-261-90-17 0-33.6 1-50.2 3 93.2-59.8 203.6-94.4 322.2-94.4 386.4 0 597.8 320.2 597.8 597.8 0 9.2-0.2 18.2-0.6 27.2 41 29.4 76.6 66.4 104.8 108.6z" />
<glyph unicode="&#xe907;" glyph-name="angle-down" horiz-adv-x="672" d="M614.272 539.424q0-7.424-5.728-13.152l-266.272-266.272q-5.728-5.728-13.152-5.728t-13.152 5.728l-266.272 266.272q-5.728 5.728-5.728 13.152t5.728 13.152l28.576 28.576q5.728 5.728 13.152 5.728t13.152-5.728l224.576-224.576 224.576 224.576q5.728 5.728 13.152 5.728t13.152-5.728l28.576-28.576q5.728-5.728 5.728-13.152z" />
<glyph unicode="&#xe908;" glyph-name="left" horiz-adv-x="366" d="M358.286 649.143q0-7.429-5.714-13.143l-224.571-224.571 224.571-224.571q5.714-5.714 5.714-13.143t-5.714-13.143l-28.571-28.571q-5.714-5.714-13.143-5.714t-13.143 5.714l-266.286 266.286q-5.714 5.714-5.714 13.143t5.714 13.143l266.286 266.286q5.714 5.714 13.143 5.714t13.143-5.714l28.571-28.571q5.714-5.714 5.714-13.143z" />
<glyph unicode="&#xe909;" glyph-name="forward" horiz-adv-x="585" d="M340 411.429q0-7.429-5.714-13.143l-266.286-266.286q-5.714-5.714-13.143-5.714t-13.143 5.714l-28.571 28.571q-5.714 5.714-5.714 13.143t5.714 13.143l224.571 224.571-224.571 224.571q-5.714 5.714-5.714 13.143t5.714 13.143l28.571 28.571q5.714 5.714 13.143 5.714t13.143-5.714l266.286-266.286q5.714-5.714 5.714-13.143zM559.429 411.429q0-7.429-5.714-13.143l-266.286-266.286q-5.714-5.714-13.143-5.714t-13.143 5.714l-28.571 28.571q-5.714 5.714-5.714 13.143t5.714 13.143l224.571 224.571-224.571 224.571q-5.714 5.714-5.714 13.143t5.714 13.143l28.571 28.571q5.714 5.714 13.143 5.714t13.143-5.714l266.286-266.286q5.714-5.714 5.714-13.143z" />
<glyph unicode="&#xe90a;" glyph-name="right" horiz-adv-x="366" d="M340 411.429q0-7.429-5.714-13.143l-266.286-266.286q-5.714-5.714-13.143-5.714t-13.143 5.714l-28.571 28.571q-5.714 5.714-5.714 13.143t5.714 13.143l224.571 224.571-224.571 224.571q-5.714 5.714-5.714 13.143t5.714 13.143l28.571 28.571q5.714 5.714 13.143 5.714t13.143-5.714l266.286-266.286q5.714-5.714 5.714-13.143z" />
<glyph unicode="&#xe90c;" glyph-name="paper-plane" d="M1008 953.714q18.857-13.714 15.429-36.571l-146.286-877.714q-2.857-16.571-18.286-25.714-8-4.571-17.714-4.571-6.286 0-13.714 2.857l-258.857 105.714-138.286-168.571q-10.286-13.143-28-13.143-7.429 0-12.571 2.286-10.857 4-17.429 13.429t-6.571 20.857v199.429l493.714 605.143-610.857-528.571-225.714 92.571q-21.143 8-22.857 31.429-1.143 22.857 18.286 33.714l950.857 548.571q8.571 5.143 18.286 5.143 11.429 0 20.571-6.286z" />
<glyph unicode="&#xe90d;" glyph-name="pencil" d="M507.429 283.429l66.286 66.286-86.857 86.857-66.286-66.286v-32h54.857v-54.857h32zM758.857 694.857q-9.143 9.143-18.857-0.571l-200-200q-9.714-9.714-0.571-18.857t18.857 0.571l200 200q9.714 9.714 0.571 18.857zM804.571 355.429v-108.571q0-68-48.286-116.286t-116.286-48.286h-475.429q-68 0-116.286 48.286t-48.286 116.286v475.429q0 68 48.286 116.286t116.286 48.286h475.429q36 0 66.857-14.286 8.571-4 10.286-13.143 1.714-9.714-5.143-16.571l-28-28q-8-8-18.286-4.571-13.143 3.429-25.714 3.429h-475.429q-37.714 0-64.571-26.857t-26.857-64.571v-475.429q0-37.714 26.857-64.571t64.571-26.857h475.429q37.714 0 64.571 26.857t26.857 64.571v72q0 7.429 5.143 12.571l36.571 36.571q8.571 8.571 20 4t11.429-16.571zM749.714 777.143l164.571-164.571-384-384h-164.571v164.571zM1003.429 701.714l-52.571-52.571-164.571 164.571 52.571 52.571q16 16 38.857 16t38.857-16l86.857-86.857q16-16 16-38.857t-16-38.857z" />
<glyph unicode="&#xe90e;" glyph-name="quotes" horiz-adv-x="951" d="M438.857 777.143v-402.286q0-59.429-23.143-113.429t-62.571-93.429-93.429-62.571-113.429-23.143h-36.571q-14.857 0-25.714 10.857t-10.857 25.714v73.143q0 14.857 10.857 25.714t25.714 10.857h36.571q60.571 0 103.429 42.857t42.857 103.429v18.286q0 22.857-16 38.857t-38.857 16h-128q-45.714 0-77.714 32t-32 77.714v219.429q0 45.714 32 77.714t77.714 32h219.429q45.714 0 77.714-32t32-77.714zM950.857 777.143v-402.286q0-59.429-23.143-113.429t-62.571-93.429-93.429-62.571-113.429-23.143h-36.571q-14.857 0-25.714 10.857t-10.857 25.714v73.143q0 14.857 10.857 25.714t25.714 10.857h36.571q60.571 0 103.429 42.857t42.857 103.429v18.286q0 22.857-16 38.857t-38.857 16h-128q-45.714 0-77.714 32t-32 77.714v219.429q0 45.714 32 77.714t77.714 32h219.429q45.714 0 77.714-32t32-77.714z" />
</font>
</defs>
</svg>
